<?xml version="1.0" encoding="UTF-8" standalone="no"?>
<svg
   version="1.1"
   id="Layer_1"
   x="0px"
   y="0px"
   width="34.299164"
   viewBox="0 0 34.299163 45.648899"
   enable-background="new 0 0 366 487"
   xml:space="preserve"
   sodipodi:docname="Bonvision-Logo_png_converted_scaled_smaller.svg"
   height="45.648899"
   inkscape:version="1.3 (0e150ed6c4, 2023-07-21)"
   xmlns:inkscape="http://www.inkscape.org/namespaces/inkscape"
   xmlns:sodipodi="http://sodipodi.sourceforge.net/DTD/sodipodi-0.dtd"
   xmlns="http://www.w3.org/2000/svg"
   xmlns:svg="http://www.w3.org/2000/svg"><defs
   id="defs13" /><sodipodi:namedview
   id="namedview13"
   pagecolor="#ffffff"
   bordercolor="#000000"
   borderopacity="0.25"
   inkscape:showpageshadow="2"
   inkscape:pageopacity="0.0"
   inkscape:pagecheckerboard="0"
   inkscape:deskcolor="#d1d1d1"
   inkscape:zoom="7.301848"
   inkscape:cx="22.186164"
   inkscape:cy="-8.1486221"
   inkscape:window-width="3840"
   inkscape:window-height="2036"
   inkscape:window-x="-12"
   inkscape:window-y="-12"
   inkscape:window-maximized="1"
   inkscape:current-layer="Layer_1" />&#10;<path
   fill="#fefefe"
   opacity="1"
   stroke="none"
   d="m 21.363318,1.238e-4 c 4.311398,0 8.6228,0 12.935847,0 0,15.2137652 0,30.4275342 0,45.6487762 -11.427942,0 -22.857543,0 -34.2989963,0 0,-15.211271 0,-30.430024 -1.687e-4,-45.6487762 6.9668065,0 13.933784,0 20.93838,0.031763 -0.07785,0.1765162 -0.216038,0.3086062 -0.304919,0.468165 -0.42413,0.7613587 -0.832853,1.531275 -1.250783,2.2961102 -0.88875,1.626465 -1.764735,3.258633 -2.29293,5.048584 -0.08465,0.286864 -0.159386,0.576655 -0.250324,0.90733 C 16.604656,8.500556 16.397569,8.309108 16.226187,8.089767 15.518722,7.18434 14.753873,6.313586 14.142338,5.346488 13.622821,4.524908 13.749494,3.64524 14.401597,2.876093 14.765603,2.446751 14.741569,1.99098 14.364472,1.6872338 14.002729,1.39587 13.658146,1.4619525 13.276507,1.8958763 12.254261,3.058185 12.117386,4.50132 12.91506,6.0291 c 0.270469,0.518029 0.601447,1.004468 0.91686,1.525298 -0.593363,0.02959 -1.168039,0.02441 -1.733913,0.09245 C 9.9896105,7.90033 8.2184775,7.226687 6.7748815,5.704525 6.0458855,4.935857 5.3981475,4.090555 4.6818115,3.309107 4.5284435,3.141805 4.2038737,2.980735 4.0183462,3.032492 3.7959562,3.094532 3.54108,3.361446 3.4794975,3.588295 c -0.06171,0.227302 0.024,0.57066 0.1728825,0.765506 0.5489588,0.718417 1.1270995,1.418115 1.7373715,2.085431 1.754396,1.918388 3.854268,2.966824 6.5373215,2.593594 0.689614,-0.09593 1.405793,-0.06469 2.103908,-0.0129 0.450742,0.03345 1.017907,0.075 1.310989,0.349691 0.767471,0.71931 1.21113,1.676895 1.515277,2.70699 -0.08857,0.007 -0.14964,0.0204 -0.209164,0.01538 -1.148392,-0.09694 -2.297291,-0.18882 -3.44454,-0.298005 -0.504288,-0.04799 -0.865732,0.16989 -0.940954,0.61044 -0.08164,0.478121 0.08863,0.764002 0.63903,0.827854 1.282643,0.1488 2.571784,0.241916 3.858623,0.353824 0.147585,0.01282 0.297247,0.0019 0.488662,0.0019 0.03435,0.790962 0.08844,1.521623 0.09154,2.252502 0.003,0.722231 -0.04539,1.44468 -0.07125,2.167031 -0.04248,0.01755 -0.08496,0.0351 -0.12744,0.05263 -0.57708,-0.491746 -1.158457,-0.978548 -1.730265,-1.476349 -0.937815,-0.816431 -1.908851,-1.565565 -3.194944,-1.745494 -0.447682,-0.06263 -0.894142,-0.136511 -1.33866,-0.21876 -1.3628725,-0.252169 -2.7323165,-0.478541 -3.3045035,-2.040626 -0.124327,-0.339413 -0.639997,-0.426341 -0.987772,-0.239674 -0.348975,0.187316 -0.50985,0.489844 -0.322459,0.858896 0.230104,0.453154 0.457335,0.928583 0.78687,1.306189 0.734487,0.841635 1.765073,1.163205 2.820837,1.328828 1.7938265,0.2814 3.4282905,0.857051 4.8045775,2.103592 0.689805,0.624773 1.48095,1.1373 2.220563,1.707983 0.07259,0.05602 0.156877,0.169766 0.148312,0.247023 -0.112897,1.018451 -0.241492,2.035159 -0.364496,3.038723 -0.10071,0.01897 -0.145943,0.02674 -0.190868,0.03604 -1.857697,0.384619 -3.211293,1.399317 -3.738825,3.257411 -0.528022,1.859802 -0.185883,3.580977 1.285894,4.929357 1.343426,1.230787 2.981487,1.479885 4.724288,1.187763 2.182492,-0.365812 3.845096,-2.196146 3.915829,-4.281408 0.08639,-2.546629 -1.236499,-4.415877 -3.543608,-5.000554 -0.311835,-0.07902 -0.628774,-0.137929 -0.916575,-0.200348 0.22062,-2.363925 0.437558,-4.688415 0.65511,-7.019501 0.681323,-0.046 1.401551,-0.04212 2.104331,-0.150922 3.543934,-0.548689 6.716269,-2.04786 9.716922,-3.932839 1.305918,-0.820369 2.29239,-1.965278 2.875751,-3.42063 0.210663,-0.525555 0.113734,-0.857644 -0.292721,-1.018072 -0.438571,-0.173112 -0.894961,3.75e-4 -1.077097,0.459086 -0.499381,1.257341 -1.376986,2.201906 -2.506325,2.881222 -2.599095,1.563405 -5.325559,2.854039 -8.323571,3.453285 -0.843525,0.168604 -1.718258,0.181095 -2.57919,0.265241 -0.08988,-0.723206 -0.164441,-1.323108 -0.236797,-1.905318 0.02539,-0.03199 0.03266,-0.05085 0.04517,-0.05546 0.130774,-0.04813 0.261829,-0.09564 0.393855,-0.140205 3.071194,-1.036702 5.664615,-2.78004 7.764034,-5.252527 0.410752,-0.483743 0.412492,-0.932524 0.01586,-1.274693 -0.381907,-0.329467 -0.680891,-0.257426 -1.13136,0.273158 -1.192612,1.404716 -2.563833,2.608867 -4.178527,3.495416 -1.038653,0.570274 -2.142563,1.021691 -3.294608,1.562722 0,-0.38076 -0.0108,-0.599021 0.0019,-0.815928 0.08051,-1.39038 0.478073,-2.704496 1.090226,-3.937886 0.80937,-1.630744 1.696425,-3.22287 2.546442,-4.833518 C 22.238441,0.6707548 22.148167,0.376796 21.36348,2.885e-4 M 1.3157625,21.328365 c 0,3.631946 0,7.263896 0,10.890739 0.9043462,0 1.7535675,0 2.63562,0 0,-0.380427 0,-0.729657 0,-1.115119 2.054366,2.414134 6.1362255,1.401907 7.0382465,-1.644116 0.463842,-1.566338 0.354398,-3.094819 -0.461827,-4.519875 -0.7782935,-1.358835 -1.9443105,-2.109342 -3.5626715,-2.068864 -1.041972,0.02606 -1.994037,0.258634 -2.7959255,1.150534 0,-2.071557 0,-4.027677 0,-5.993085 -0.9743475,0 -1.9005788,0 -2.8534425,0 0,1.087725 0,2.146878 0,3.299786 m 27.1799635,1.767416 c -0.483249,0.340691 -0.966496,0.681379 -1.454127,1.02516 0,-0.266569 0,-0.599704 0,-0.940327 -0.930206,0 -1.811385,0 -2.701421,0 0,3.032343 0,6.040061 0,9.033975 0.953168,0 1.880838,0 2.821005,0 0,-1.550108 -0.01358,-3.06435 0.0086,-4.578064 0.0063,-0.4302 0.06031,-0.877238 0.192307,-1.284154 0.224247,-0.691279 0.82548,-0.996956 1.647312,-0.92913 0.607852,0.05017 1.036822,0.452546 1.164049,1.149855 0.0667,0.365603 0.08928,0.743352 0.0917,1.115876 0.0098,1.509949 0.0041,3.020003 0.0041,4.529832 0.969068,0 1.89531,0 2.828985,0 0,-1.87476 0.01552,-3.717848 -0.0096,-5.56038 -0.0074,-0.541152 -0.08301,-1.092143 -0.210248,-1.618587 -0.248329,-1.027421 -0.86676,-1.7586 -1.918882,-2.031322 -0.796988,-0.206588 -1.603478,-0.22512 -2.463762,0.08727 m 2.05485,16.419953 c 0.316309,0.518868 0.62538,1.042391 0.954454,1.553032 0.074,0.114829 0.214388,0.25743 0.330098,0.262905 0.571215,0.02704 1.14441,0.0123 1.70604,0.0123 0,-2.246587 0,-4.43928 0,-6.630746 -0.489015,0 -0.950265,0 -1.438167,0 0,1.500094 0,2.974665 0,4.554705 -0.143344,-0.202534 -0.235572,-0.317978 -0.311974,-0.443085 -0.779558,-1.276508 -1.554102,-2.55609 -2.338223,-3.829778 -0.07366,-0.119651 -0.199324,-0.28764 -0.307264,-0.292571 -0.616454,-0.02812 -1.234856,-0.01365 -1.838313,-0.01365 0,2.253435 0,4.446068 0,6.634163 0.493653,0 0.956523,0 1.460347,0 0,-1.538487 0,-3.056393 0,-4.714099 0.632629,1.029244 1.191285,1.938142 1.783001,2.906831 m -9.922391,1.494551 c 0.196616,0.09297 0.38778,0.200468 0.590715,0.27657 1.44036,0.540143 3.171165,0.188618 4.112044,-0.828506 0.929021,-1.004302 1.165969,-2.722384 0.556024,-4.03161 -0.617202,-1.3248 -1.979464,-2.056661 -3.585548,-1.926281 -1.569904,0.127436 -2.721364,1.039879 -3.112672,2.466544 -0.432627,1.577302 0.08673,3.084157 1.439437,4.043283 m -9.244885,0.151339 c 0.86484,0.424088 1.758739,0.495394 2.674357,0.198979 0.975147,-0.315694 1.499213,-1.052933 1.493625,-2.073469 -0.0049,-0.896887 -0.481875,-1.466209 -1.483894,-1.794476 -0.411637,-0.134854 -0.834243,-0.25845 -1.213631,-0.45936 -0.168603,-0.08928 -0.339937,-0.361418 -0.332325,-0.543109 0.0078,-0.185389 0.196016,-0.424414 0.371423,-0.529357 0.417641,-0.249882 0.869058,-0.1872 1.296798,0.02359 0.133167,0.06563 0.256928,0.150345 0.388193,0.228221 0.325984,-0.351307 0.631627,-0.680696 0.94542,-1.018871 -0.447,-0.475841 -1.026094,-0.613144 -1.61334,-0.672544 -0.899606,-0.09099 -1.750294,0.06642 -2.39841,0.766103 -0.963544,1.040205 -0.634091,2.525663 0.671659,3.064658 0.502826,0.207558 1.036713,0.350294 1.515112,0.601342 0.184538,0.09684 0.35625,0.417416 0.345915,0.626782 -0.0092,0.1863 -0.247031,0.453653 -0.439399,0.51708 -0.293508,0.09677 -0.65118,0.116277 -0.9513,0.04354 -0.316177,-0.07662 -0.596756,-0.300135 -0.924637,-0.476553 -0.303274,0.331616 -0.63441,0.693701 -0.981706,1.07346 0.214947,0.148132 0.39408,0.27159 0.636139,0.423975 M 1.8250837,36.186315 c 0.5585138,1.401701 1.1165738,2.803579 1.6756988,4.20504 0.3997687,1.002045 0.4004025,1.00179 1.558867,0.932677 0.900653,-2.191038 1.80699,-4.395903 2.721435,-6.620497 -0.559136,0 -1.056386,0 -1.561968,0 -0.551352,1.435421 -1.098424,2.859701 -1.674623,4.359821 -0.5734723,-1.517599 -1.1119798,-2.942659 -1.6463398,-4.35675 -0.5536087,0 -1.07763,0 -1.6548937,0 0.1920525,0.494292 0.370815,0.954386 0.5818237,1.479709 m 6.6936108,2.298308 c 0,0.945337 0,1.890678 0,2.838416 0.510177,0 0.970613,0 1.450478,0 0,-2.212586 0,-4.403201 0,-6.606454 -0.49281,0 -0.964309,0 -1.450478,0 0,1.244625 0,2.459456 0,3.768038 M 18.146433,35.21982 c 0,-0.166965 0,-0.333934 0,-0.498802 -0.522199,0 -0.994511,0 -1.441935,0 0,2.225913 0,4.417499 0,6.596366 0.490151,0 0.950423,0 1.441935,0 0,-2.020789 0,-4.014143 0,-6.097564 z"
   id="path1"
   style="stroke-width:0.09375" />&#10;<path
   fill="#040404"
   opacity="1"
   stroke="none"
   d="m 21.325818,1.238e-4 c 0.822188,0.3765075 0.912461,0.6704662 0.479374,1.4910975 -0.850016,1.6106477 -1.737071,3.2027737 -2.546441,4.8335177 -0.612154,1.23339 -1.009722,2.547506 -1.090226,3.937886 -0.01256,0.216907 -0.0019,0.435169 -0.0019,0.815929 1.152044,-0.541032 2.255955,-0.992449 3.294607,-1.562723 1.614694,-0.886549 2.985915,-2.0907 4.178528,-3.495416 0.450468,-0.530584 0.749452,-0.602625 1.13136,-0.273157 0.396633,0.342168 0.394893,0.79095 -0.01586,1.274692 -2.099419,2.472487 -4.69284,4.215825 -7.764034,5.252527 -0.132026,0.04457 -0.263081,0.09208 -0.393855,0.140205 -0.01253,0.0046 -0.0198,0.02347 -0.04517,0.05546 0.07236,0.58221 0.146913,1.182112 0.236797,1.905319 0.860933,-0.08415 1.735665,-0.09664 2.57919,-0.265242 2.998013,-0.599246 5.724476,-1.889879 8.323571,-3.453285 1.129339,-0.679316 2.006944,-1.623881 2.506324,-2.881222 0.182138,-0.458587 0.638528,-0.632197 1.077098,-0.459086 0.406455,0.160429 0.503385,0.492517 0.292721,1.018072 -0.583361,1.455353 -1.569832,2.600261 -2.875751,3.42063 -3.000653,1.884979 -6.172988,3.38415 -9.716922,3.932839 -0.70278,0.108806 -1.423008,0.104921 -2.104331,0.150922 -0.217552,2.331087 -0.43449,4.655577 -0.65511,7.019502 0.287801,0.06242 0.60474,0.121323 0.916575,0.200347 2.307109,0.584678 3.629997,2.453925 3.543608,5.000554 -0.07073,2.085262 -1.733337,3.915596 -3.915829,4.281409 -1.742801,0.292121 -3.380861,0.04303 -4.724288,-1.187764 -1.471777,-1.34838 -1.813916,-3.069555 -1.285893,-4.929356 0.527531,-1.858095 1.881127,-2.872793 3.738825,-3.257412 0.04492,-0.0093 0.09016,-0.0171 0.190867,-0.03604 0.123004,-1.003564 0.251599,-2.020271 0.364496,-3.038722 0.0085,-0.07726 -0.07572,-0.191011 -0.148312,-0.247024 -0.739613,-0.570683 -1.530758,-1.08321 -2.220563,-1.707983 -1.376287,-1.246541 -3.010751,-1.822192 -4.8045775,-2.103592 -1.055764,-0.165623 -2.08635,-0.487193 -2.820837,-1.328828 -0.329534,-0.377606 -0.556766,-0.853035 -0.78687,-1.306188 -0.187391,-0.369053 -0.02651,-0.671581 0.322459,-0.858897 0.347775,-0.186667 0.863445,-0.09974 0.987773,0.239674 0.572186,1.562085 1.94163,1.788457 3.3045025,2.040626 0.444518,0.08225 0.890978,0.156128 1.33866,0.21876 1.286093,0.179929 2.257129,0.929063 3.194944,1.745494 0.571808,0.497801 1.153185,0.984604 1.730265,1.476349 0.04248,-0.01755 0.08496,-0.0351 0.12744,-0.05263 0.02587,-0.722351 0.07431,-1.4448 0.07125,-2.167031 -0.003,-0.730879 -0.05717,-1.46154 -0.09154,-2.252501 -0.191415,0 -0.341078,0.0111 -0.488663,-0.0019 -1.286839,-0.111908 -2.57598,-0.205024 -3.858622,-0.353824 -0.550399,-0.06386 -0.720668,-0.349733 -0.63903,-0.827854 0.07522,-0.44055 0.436665,-0.658436 0.940954,-0.61044 1.147248,0.109185 2.296147,0.201068 3.44454,0.298005 0.05953,0.005 0.120592,-0.0083 0.209163,-0.01537 -0.304147,-1.030095 -0.747806,-1.98768 -1.515277,-2.70699 C 15.048727,9.094776 14.481561,9.053211 14.030819,9.019772 13.332704,8.967982 12.616525,8.936742 11.926911,9.032672 9.2438815,9.40593 7.1440085,8.357494 5.3896125,6.439106 4.7793415,5.77179 4.2012,5.072093 3.6522412,4.353675 3.503355,4.158829 3.4176488,3.815471 3.4793587,3.588169 3.5409412,3.36132 3.7958175,3.094406 4.0182075,3.032366 c 0.1855275,-0.05176 0.510097,0.109313 0.663465,0.276615 0.716336,0.781448 1.364074,1.62675 2.09307,2.395418 1.443596,1.522162 3.214729,2.195805 5.3231255,1.942324 0.565874,-0.06803 1.14055,-0.06288 1.733913,-0.09245 C 13.516368,7.033443 13.18539,6.547004 12.914921,6.028975 12.117247,4.501195 12.254122,3.05806 13.276368,1.8957515 13.658006,1.4618278 14.00259,1.3957453 14.364333,1.687109 c 0.377111,0.3037463 0.401145,0.759518 0.03712,1.188859 -0.652101,0.769147 -0.778777,1.648815 -0.25926,2.470395 0.611535,0.967099 1.376385,1.837852 2.083849,2.743279 0.171382,0.219341 0.378469,0.410789 0.613237,0.662309 0.09094,-0.330675 0.165675,-0.620467 0.250324,-0.907331 0.528195,-1.78995 1.40418,-3.422118 2.29293,-5.048583 0.41793,-0.7648355 0.826654,-1.5347517 1.250783,-2.2961105 0.08888,-0.1595587 0.22707,-0.2916487 0.348697,-0.468165 C 21.088177,0 21.188178,0 21.325679,0 m -2.163397,29.443057 c 0.344985,-0.365958 0.603892,-0.768982 0.605284,-1.329033 -0.490379,0.25845 -0.938022,0.341797 -1.341218,-0.041 -0.346894,-0.329351 -0.382736,-0.755415 -0.206576,-1.168162 0.240405,-0.563299 0.725896,-0.633214 1.278795,-0.481095 -0.361661,-1.231204 -2.668961,-1.513587 -3.585547,-0.395967 -0.737932,0.899794 -0.714787,2.502124 0.06723,3.332142 0.744432,0.790132 2.15547,0.84762 3.182033,0.08312 z"
   id="path2"
   style="stroke-width:0.09375" />&#10;<path
   fill="#030303"
   opacity="1"
   stroke="none"
   d="m 1.3156237,21.281366 c 0,-1.106032 0,-2.165186 0,-3.252911 0.9528638,0 1.879095,0 2.8534425,0 0,1.965409 0,3.921529 0,5.993085 0.8018883,-0.8919 1.7539533,-1.124475 2.7959253,-1.150534 1.618361,-0.04048 2.784378,0.710029 3.5626715,2.068864 0.816225,1.425056 0.925669,2.953537 0.461829,4.519875 -0.902023,3.046024 -4.9838825,4.05825 -7.0382483,1.644116 0,0.385463 0,0.734693 0,1.115119 -0.8820525,0 -1.7312737,0 -2.63562,0 0,-3.626842 0,-7.258793 0,-10.937614 m 2.7296213,5.542399 c -0.029812,0.1371 -0.06624,0.273139 -0.088406,0.411461 -0.2238412,1.396778 0.5427035,2.536631 1.8353175,2.732561 1.370317,0.207709 2.397195,-0.551681 2.600077,-1.922801 0.183769,-1.241955 -0.458257,-2.367214 -1.501927,-2.632376 -1.313565,-0.333731 -2.370225,0.171622 -2.8450615,1.411155 z"
   id="path3"
   style="stroke-width:0.09375" />&#10;<path
   fill="#030303"
   opacity="1"
   stroke="none"
   d="m 28.530112,23.08311 c 0.825757,-0.299839 1.632248,-0.281306 2.429235,-0.07472 1.052122,0.272722 1.670555,1.003901 1.918883,2.031323 0.127241,0.526443 0.202856,1.077434 0.210247,1.618586 0.02516,1.842532 0.0096,3.68562 0.0096,5.56038 -0.933676,0 -1.859918,0 -2.828985,0 0,-1.509829 0.0057,-3.019883 -0.0041,-4.529831 -0.0023,-0.372525 -0.02501,-0.750274 -0.0917,-1.115877 -0.127226,-0.697308 -0.556196,-1.099687 -1.164049,-1.149855 -0.821831,-0.06782 -1.423065,0.237852 -1.647311,0.92913 -0.132,0.406917 -0.185993,0.853954 -0.192308,1.284154 -0.02224,1.513714 -0.0086,3.027956 -0.0086,4.578064 -0.940167,0 -1.867838,0 -2.821006,0 0,-2.993914 0,-6.001632 0,-9.033975 0.890037,0 1.771215,0 2.701422,0 0,0.340624 0,0.673759 0,0.940327 0.487631,-0.343781 0.970878,-0.684468 1.488652,-1.037707 z"
   id="path4"
   style="stroke-width:0.09375" />&#10;<path
   fill="#020202"
   opacity="1"
   stroke="none"
   d="m 30.53391,39.485711 c -0.575189,-0.93879 -1.133847,-1.847689 -1.766474,-2.876932 0,1.657706 0,3.175612 0,4.714098 -0.503825,0 -0.966694,0 -1.460349,0 0,-2.188094 0,-4.380727 0,-6.634162 0.603457,0 1.221859,-0.01447 1.838314,0.01365 0.10794,0.0049 0.233602,0.17292 0.307264,0.292571 0.784121,1.273688 1.558665,2.55327 2.338222,3.829778 0.0764,0.125107 0.16863,0.240551 0.311974,0.443085 0,-1.58004 0,-3.054612 0,-4.554705 0.487901,0 0.949151,0 1.438166,0 0,2.191466 0,4.384158 0,6.630746 -0.56163,0 -1.134825,0.01474 -1.70604,-0.0123 -0.11571,-0.0055 -0.256095,-0.148076 -0.330098,-0.262905 -0.329073,-0.510641 -0.638145,-1.034164 -0.97098,-1.582931 z"
   id="path5"
   style="stroke-width:0.09375" />&#10;<path
   fill="#040404"
   opacity="1"
   stroke="none"
   d="m 20.598941,40.992135 c -1.323563,-0.9411 -1.842923,-2.447955 -1.410297,-4.025258 0.391309,-1.426665 1.542769,-2.339107 3.112673,-2.466543 1.606084,-0.13038 2.968346,0.601481 3.585548,1.926281 0.609945,1.309226 0.372997,3.027307 -0.556024,4.03161 -0.940879,1.017124 -2.671684,1.368649 -4.112044,0.828506 -0.202935,-0.0761 -0.394099,-0.183604 -0.619856,-0.294596 m 4.022711,-2.281556 c 0.02494,-0.169444 0.05706,-0.338187 0.07357,-0.508448 0.101895,-1.050262 -0.471262,-1.996639 -1.383026,-2.289836 -1.116754,-0.359115 -2.247732,0.189334 -2.604248,1.262891 -0.414626,1.24854 0.116745,2.54202 1.201898,2.925686 1.14708,0.405563 2.244262,-0.13425 2.711805,-1.390293 z"
   id="path6"
   style="stroke-width:0.09375" />&#10;<path
   fill="#030303"
   opacity="1"
   stroke="none"
   d="m 11.351733,41.147036 c -0.210596,-0.137921 -0.38973,-0.261379 -0.604676,-0.409511 0.347295,-0.379759 0.678431,-0.741844 0.981705,-1.07346 0.327882,0.176419 0.60846,0.399934 0.924637,0.476554 0.30012,0.07273 0.657793,0.05323 0.9513,-0.04354 0.192368,-0.06343 0.4302,-0.33078 0.4394,-0.51708 0.01035,-0.209366 -0.161378,-0.529946 -0.345916,-0.626782 -0.478399,-0.251048 -1.012286,-0.393784 -1.515111,-0.601343 -1.30575,-0.538995 -1.635203,-2.024452 -0.671659,-3.064657 0.648116,-0.699683 1.498804,-0.857097 2.39841,-0.766103 0.587246,0.0594 1.166339,0.196703 1.61334,0.672544 -0.313793,0.338175 -0.619436,0.667564 -0.94542,1.018871 -0.131265,-0.07788 -0.255026,-0.162592 -0.388193,-0.228221 -0.42774,-0.210799 -0.879157,-0.27348 -1.296798,-0.02359 -0.175407,0.104944 -0.363653,0.343969 -0.371423,0.529358 -0.0076,0.181691 0.163722,0.453825 0.332325,0.543109 0.379388,0.20091 0.801994,0.324506 1.213631,0.45936 1.002019,0.328267 1.478982,0.897588 1.483894,1.794476 0.0056,1.020536 -0.518478,1.757775 -1.493625,2.073469 -0.915618,0.296415 -1.809517,0.225108 -2.70582,-0.213443 z"
   id="path7"
   style="stroke-width:0.09375" />&#10;<path
   fill="#030303"
   opacity="1"
   stroke="none"
   d="M 1.8088275,36.153577 C 1.61394,35.660869 1.4351775,35.200774 1.243125,34.706482 c 0.5772637,0 1.101285,0 1.6548937,0 0.5343601,1.414092 1.0728675,2.839152 1.6463398,4.35675 0.576199,-1.50012 1.123271,-2.9244 1.674623,-4.359821 0.505582,0 1.002832,0 1.561968,0 -0.914444,2.224594 -1.820782,4.429459 -2.721435,6.620498 -1.1584645,0.06911 -1.1590983,0.06937 -1.558867,-0.932678 -0.559125,-1.401461 -1.117185,-2.803339 -1.69182,-4.237654 z"
   id="path8"
   style="stroke-width:0.09375" />&#10;<path
   fill="#060606"
   opacity="1"
   stroke="none"
   d="m 8.5185595,38.437624 c 0,-1.261707 0,-2.476538 0,-3.721163 0.486169,0 0.957668,0 1.450478,0 0,2.203253 0,4.393868 0,6.606454 -0.479865,0 -0.940301,0 -1.450478,0 0,-0.947738 0,-1.893079 0,-2.885291 z"
   id="path9"
   style="stroke-width:0.09375" />&#10;<path
   fill="#060606"
   opacity="1"
   stroke="none"
   d="m 18.146298,35.264737 c 0,2.038384 0,4.031738 0,6.052527 -0.491512,0 -0.951784,0 -1.441935,0 0,-2.178867 0,-4.370453 0,-6.596366 0.447424,0 0.919736,0 1.441935,0 0,0.164868 0,0.331837 0,0.543839 z"
   id="path10"
   style="stroke-width:0.09375" />&#10;<path
   fill="#fcfcfc"
   opacity="1"
   stroke="none"
   d="m 19.136133,29.46537 c -1.000275,0.742312 -2.411314,0.684825 -3.155744,-0.105308 -0.782017,-0.830017 -0.805162,-2.432347 -0.06723,-3.332141 0.916585,-1.11762 3.223887,-0.835237 3.585547,0.395966 -0.5529,-0.152118 -1.03839,-0.0822 -1.278794,0.481095 -0.17616,0.412748 -0.140318,0.838812 0.206575,1.168163 0.403197,0.3828 0.850838,0.299452 1.341217,0.041 -0.0015,0.560052 -0.260297,0.963075 -0.631571,1.351223 z"
   id="path11"
   style="stroke-width:0.09375" />&#10;<path
   fill="#fdfdfd"
   opacity="1"
   stroke="none"
   d="m 4.0626412,26.790203 c 0.4574403,-1.205971 1.5141003,-1.711324 2.8276653,-1.377593 1.04367,0.265162 1.685696,1.390421 1.501927,2.632376 -0.202882,1.37112 -1.22976,2.13051 -2.600077,1.922801 -1.292614,-0.19593 -2.059159,-1.335783 -1.8353178,-2.732561 0.022163,-0.138322 0.058597,-0.274361 0.1058025,-0.445023 z"
   id="path12"
   style="stroke-width:0.09375" />&#10;<path
   fill="#fcfcfc"
   opacity="1"
   stroke="none"
   d="m 24.607642,38.745521 c -0.453532,1.221101 -1.550715,1.760914 -2.697795,1.355351 -1.085153,-0.383666 -1.616524,-1.677146 -1.201898,-2.925686 0.356517,-1.073557 1.487494,-1.622006 2.604248,-1.262891 0.911765,0.293197 1.484921,1.239574 1.383026,2.289836 -0.0165,0.170261 -0.04865,0.339004 -0.08758,0.54339 z"
   id="path13"
   style="stroke-width:0.09375" />&#10;</svg>
