<?xml version="1.0" encoding="UTF-8" standalone="no"?>
<svg
   version="1.1"
   id="Layer_1"
   x="0px"
   y="0px"
   width="45.73222"
   viewBox="0 0 45.732219 60.8652"
   enable-background="new 0 0 366 487"
   xml:space="preserve"
   sodipodi:docname="Bonvision-Logo_png_converted_scaled.svg"
   height="60.8652"
   inkscape:version="1.3 (0e150ed6c4, 2023-07-21)"
   xmlns:inkscape="http://www.inkscape.org/namespaces/inkscape"
   xmlns:sodipodi="http://sodipodi.sourceforge.net/DTD/sodipodi-0.dtd"
   xmlns="http://www.w3.org/2000/svg"
   xmlns:svg="http://www.w3.org/2000/svg"><defs
   id="defs13" /><sodipodi:namedview
   id="namedview13"
   pagecolor="#ffffff"
   bordercolor="#000000"
   borderopacity="0.25"
   inkscape:showpageshadow="2"
   inkscape:pageopacity="0.0"
   inkscape:pagecheckerboard="0"
   inkscape:deskcolor="#d1d1d1"
   inkscape:zoom="1.825462"
   inkscape:cx="208.16648"
   inkscape:cy="139.69066"
   inkscape:window-width="3840"
   inkscape:window-height="2036"
   inkscape:window-x="-12"
   inkscape:window-y="-12"
   inkscape:window-maximized="1"
   inkscape:current-layer="Layer_1" />&#10;<path
   fill="#fefefe"
   opacity="1"
   stroke="none"
   d="m 28.484425,1.65e-4 c 5.74853,0 11.497065,0 17.247795,0 0,20.28502 0,40.570045 0,60.865035 -15.237255,0 -30.476725,0 -45.731995,0 0,-20.281695 0,-40.573365 -2.25e-4,-60.865035 9.289075,0 18.57838,0 27.91784,0.04235 -0.1038,0.235355 -0.28805,0.411475 -0.40656,0.62422 -0.565505,1.015145 -1.11047,2.0417 -1.66771,3.06148 -1.185,2.16862 -2.35298,4.344845 -3.05724,6.731445 -0.112865,0.382485 -0.212515,0.768875 -0.333765,1.209775 -0.313025,-0.33536 -0.58914,-0.590625 -0.81765,-0.88308 C 20.69163,9.57912 19.67183,8.418115 18.85645,7.12865 18.16376,6.03321 18.33266,4.86032 19.20213,3.83479 19.68747,3.262335 19.655425,2.65464 19.15263,2.249645 18.670305,1.86116 18.21086,1.94927 17.70201,2.527835 16.339015,4.07758 16.156515,6.00176 17.22008,8.0388 c 0.360625,0.690705 0.80193,1.33929 1.22248,2.03373 -0.79115,0.03945 -1.557385,0.03255 -2.311885,0.123265 C 13.31948,10.53377 10.95797,9.63558 9.033175,7.60603 8.06118,6.58114 7.19753,5.45407 6.242415,4.41214 6.037925,4.18907 5.605165,3.97431 5.357795,4.04332 5.061275,4.12604 4.72144,4.481925 4.63933,4.78439 c -0.08228,0.30307 0.032,0.76088 0.23051,1.020675 0.731945,0.95789 1.5028,1.89082 2.316495,2.780575 2.339195,2.55785 5.139025,3.955765 8.71643,3.458125 0.919485,-0.127905 1.87439,-0.08625 2.80521,-0.0172 0.60099,0.0446 1.35721,0.100005 1.747985,0.466255 1.023295,0.95908 1.61484,2.23586 2.02037,3.60932 -0.118095,0.0094 -0.19952,0.0272 -0.278885,0.0205 -1.53119,-0.12925 -3.063055,-0.25176 -4.59272,-0.39734 -0.672385,-0.06399 -1.15431,0.22652 -1.254605,0.81392 -0.10885,0.637495 0.118175,1.01867 0.85204,1.103805 1.71019,0.1984 3.429045,0.322555 5.14483,0.471765 0.19678,0.0171 0.39633,0.0025 0.65155,0.0025 0.0458,1.054615 0.11792,2.02883 0.12205,3.003335 0.004,0.962975 -0.06052,1.92624 -0.095,2.889375 -0.05664,0.0234 -0.11328,0.0468 -0.16992,0.07017 -0.76944,-0.65566 -1.54461,-1.30473 -2.30702,-1.968465 -1.25042,-1.088575 -2.545135,-2.08742 -4.259925,-2.327325 -0.59691,-0.08351 -1.19219,-0.182015 -1.78488,-0.29168 C 12.68668,19.156475 10.860755,18.854645 10.09784,16.771865 9.93207,16.319315 9.24451,16.20341 8.78081,16.4523 c -0.4653,0.249755 -0.6798,0.653125 -0.429945,1.145195 0.306805,0.604205 0.60978,1.23811 1.04916,1.741585 0.979315,1.12218 2.35343,1.55094 3.761115,1.77177 2.39177,0.3752 4.571055,1.142735 6.406105,2.80479 0.91974,0.83303 1.9746,1.5164 2.96075,2.27731 0.09678,0.07469 0.20917,0.226355 0.19775,0.329365 -0.15053,1.357935 -0.32199,2.713545 -0.485995,4.05163 -0.13428,0.0253 -0.19459,0.03565 -0.25449,0.04805 -2.47693,0.512825 -4.281725,1.865755 -4.9851,4.343215 -0.70403,2.479735 -0.247845,4.774635 1.714525,6.572475 1.791235,1.64105 3.975315,1.97318 6.29905,1.583685 2.90999,-0.48775 5.126795,-2.928195 5.221105,-5.708545 0.115185,-3.395505 -1.648665,-5.887835 -4.72481,-6.667405 -0.41578,-0.105365 -0.838365,-0.183905 -1.2221,-0.26713 0.29416,-3.1519 0.58341,-6.25122 0.87348,-9.359335 0.90843,-0.06133 1.868735,-0.05616 2.805775,-0.20123 C 32.69243,20.18614 36.92221,18.187245 40.92308,15.67394 42.664305,14.580115 43.9796,13.05357 44.757415,11.1131 45.0383,10.41236 44.90906,9.969575 44.36712,9.75567 c -0.58476,-0.230815 -1.19328,5e-4 -1.43613,0.612115 -0.66584,1.676455 -1.83598,2.935875 -3.341765,3.84163 -3.46546,2.08454 -7.100745,3.805385 -11.098095,4.60438 -1.1247,0.224805 -2.29101,0.24146 -3.43892,0.353655 -0.119845,-0.964275 -0.219255,-1.764145 -0.31573,-2.540425 0.03385,-0.04265 0.04355,-0.0678 0.06023,-0.07395 0.174365,-0.06417 0.349105,-0.127515 0.52514,-0.18694 4.094925,-1.38227 7.55282,-3.70672 10.352045,-7.00337 0.54767,-0.64499 0.54999,-1.243365 0.02115,-1.69959 -0.50921,-0.43929 -0.907855,-0.343235 -1.50848,0.36421 -1.59015,1.872955 -3.418445,3.47849 -5.57137,4.660555 -1.38487,0.760365 -2.85675,1.362255 -4.39281,2.08363 0,-0.50768 -0.0144,-0.798695 0.0025,-1.087905 0.10734,-1.85384 0.63743,-3.605995 1.453635,-5.250515 1.07916,-2.174325 2.2619,-4.29716 3.395255,-6.44469 C 29.651225,0.894285 29.53086,0.50234 28.48461,3.3e-4 M 1.75435,28.43782 c 0,4.842595 0,9.685195 0,14.520985 1.205795,0 2.33809,0 3.51416,0 0,-0.507235 0,-0.972875 0,-1.486825 2.739155,3.218845 8.181635,1.86921 9.38433,-2.192155 0.618455,-2.08845 0.47253,-4.126425 -0.61577,-6.0265 -1.037725,-1.81178 -2.592415,-2.812455 -4.75023,-2.758485 -1.389295,0.03475 -2.658715,0.344845 -3.7279,1.534045 0,-2.762075 0,-5.370235 0,-7.99078 -1.29913,0 -2.534105,0 -3.80459,0 0,1.4503 0,2.862505 0,4.399715 m 36.23995,2.356555 c -0.64433,0.454255 -1.28866,0.908505 -1.938835,1.36688 0,-0.355425 0,-0.799605 0,-1.25377 -1.240275,0 -2.41518,0 -3.601895,0 0,4.043125 0,8.053415 0,12.0453 1.27089,0 2.507785,0 3.76134,0 0,-2.06681 -0.0181,-4.0858 0.0115,-6.104085 0.0084,-0.5736 0.08041,-1.16965 0.25641,-1.712205 0.298995,-0.921705 1.10064,-1.329275 2.196415,-1.23884 0.81047,0.06689 1.38243,0.603395 1.552065,1.53314 0.08894,0.48747 0.119045,0.991135 0.12227,1.487835 0.0131,2.013265 0.0055,4.02667 0.0055,6.039775 1.29209,0 2.52708,0 3.77198,0 0,-2.49968 0.0207,-4.95713 -0.01285,-7.41384 -0.0099,-0.721535 -0.110675,-1.45619 -0.28033,-2.158115 -0.331105,-1.369895 -1.15568,-2.3448 -2.55851,-2.70843 -1.06265,-0.27545 -2.13797,-0.30016 -3.285015,0.116355 m 2.7398,21.89327 c 0.421745,0.691825 0.83384,1.389855 1.272605,2.07071 0.09867,0.153105 0.28585,0.34324 0.44013,0.35054 0.76162,0.03605 1.52588,0.0164 2.27472,0.0164 0,-2.99545 0,-5.91904 0,-8.840995 -0.65202,0 -1.26702,0 -1.917555,0 0,2.000125 0,3.96622 0,6.07294 -0.191125,-0.270045 -0.314095,-0.42397 -0.415965,-0.59078 -1.03941,-1.70201 -2.072135,-3.40812 -3.11763,-5.10637 -0.09822,-0.159535 -0.265765,-0.38352 -0.409685,-0.390095 -0.82194,-0.0375 -1.646475,-0.0182 -2.451085,-0.0182 0,3.00458 0,5.92809 0,8.84555 0.658205,0 1.275365,0 1.94713,0 0,-2.051315 0,-4.07519 0,-6.285465 0.843505,1.372325 1.58838,2.58419 2.377335,3.875775 M 27.50429,54.68039 c 0.262155,0.123955 0.51704,0.26729 0.78762,0.36876 1.92048,0.72019 4.22822,0.25149 5.482725,-1.104675 1.238695,-1.33907 1.554625,-3.629845 0.741365,-5.37548 -0.822935,-1.7664 -2.639285,-2.742215 -4.78073,-2.568375 -2.093205,0.169915 -3.628485,1.386505 -4.15023,3.288725 -0.576835,2.10307 0.115645,4.11221 1.91925,5.391045 m -12.326515,0.201785 c 1.15312,0.56545 2.344985,0.660525 3.56581,0.265305 1.300195,-0.420925 1.99895,-1.40391 1.9915,-2.764625 -0.0065,-1.19585 -0.6425,-1.954945 -1.978525,-2.392635 -0.54885,-0.179805 -1.112325,-0.3446 -1.618175,-0.61248 -0.224805,-0.119045 -0.45325,-0.48189 -0.4431,-0.724145 0.01035,-0.247185 0.261355,-0.565885 0.49523,-0.70581 0.556855,-0.333175 1.158745,-0.2496 1.729065,0.03145 0.177555,0.08751 0.34257,0.20046 0.51759,0.304295 0.434645,-0.46841 0.84217,-0.907595 1.26056,-1.358495 -0.596,-0.634455 -1.368125,-0.817525 -2.15112,-0.896725 -1.199475,-0.121325 -2.333725,0.08856 -3.19788,1.02147 -1.284725,1.38694 -0.845455,3.36755 0.895545,4.08621 0.670435,0.276745 1.382285,0.46706 2.02015,0.80179 0.24605,0.129115 0.475,0.556555 0.46122,0.83571 -0.01225,0.2484 -0.329375,0.60487 -0.585865,0.68944 -0.391345,0.12903 -0.86824,0.155035 -1.2684,0.05806 -0.42157,-0.10216 -0.795675,-0.40018 -1.23285,-0.635405 -0.404365,0.442155 -0.84588,0.924935 -1.30894,1.43128 0.286595,0.19751 0.52544,0.36212 0.848185,0.5653 M 2.433445,48.24842 c 0.744685,1.868935 1.488765,3.738105 2.234265,5.60672 0.533025,1.33606 0.53387,1.33572 2.07849,1.24357 1.20087,-2.921385 2.40932,-5.861205 3.62858,-8.82733 -0.745515,0 -1.408515,0 -2.082625,0 -0.735135,1.913895 -1.464565,3.812935 -2.23283,5.813095 -0.76463,-2.023465 -1.48264,-3.923545 -2.19512,-5.809 -0.738145,0 -1.43684,0 -2.206525,0 0.25607,0.659055 0.49442,1.272515 0.775765,1.972945 m 8.924815,3.06441 c 0,1.26045 0,2.520905 0,3.784555 0.680235,0 1.29415,0 1.93397,0 0,-2.950115 0,-5.870935 0,-8.808605 -0.65708,0 -1.285745,0 -1.93397,0 0,1.6595 0,3.279275 0,5.02405 m 12.836985,-4.35307 c 0,-0.22262 0,-0.445245 0,-0.66507 -0.696265,0 -1.326015,0 -1.92258,0 0,2.967885 0,5.89 0,8.795155 0.653535,0 1.26723,0 1.92258,0 0,-2.694385 0,-5.35219 0,-8.130085 z"
   id="path1"
   style="stroke-width:0.125" />&#10;<path
   fill="#040404"
   opacity="1"
   stroke="none"
   d="m 28.434425,1.65e-4 c 1.09625,0.50201 1.216615,0.893955 0.639165,1.98813 -1.133355,2.14753 -2.316095,4.270365 -3.395255,6.44469 -0.816205,1.64452 -1.346295,3.396675 -1.453635,5.250515 -0.01675,0.28921 -0.0025,0.580225 -0.0025,1.087905 1.53606,-0.721375 3.00794,-1.323265 4.39281,-2.08363 2.152925,-1.182065 3.98122,-2.7876 5.57137,-4.660555 0.600625,-0.707445 0.99927,-0.8035 1.50848,-0.36421 0.528845,0.456225 0.526525,1.0546 -0.02115,1.69959 -2.799225,3.29665 -6.25712,5.6211 -10.352045,7.00337 -0.176035,0.05943 -0.350775,0.12277 -0.52514,0.18694 -0.0167,0.0062 -0.0264,0.0313 -0.06023,0.07395 0.09648,0.77628 0.195885,1.57615 0.31573,2.540425 1.14791,-0.112195 2.31422,-0.12885 3.43892,-0.353655 3.99735,-0.798995 7.632635,-2.51984 11.098095,-4.60438 1.505785,-0.905755 2.675925,-2.165175 3.341765,-3.84163 0.24285,-0.61145 0.85137,-0.84293 1.43613,-0.612115 0.54194,0.213905 0.67118,0.65669 0.390295,1.35743 -0.777815,1.94047 -2.09311,3.467015 -3.834335,4.56084 -4.00087,2.513305 -8.23065,4.5122 -12.955895,5.243785 -0.93704,0.145075 -1.897345,0.139895 -2.805775,0.20123 -0.29007,3.108115 -0.57932,6.207435 -0.87348,9.359335 0.383735,0.08322 0.80632,0.161765 1.2221,0.26713 3.076145,0.77957 4.839995,3.2719 4.72481,6.667405 -0.09431,2.78035 -2.311115,5.220795 -5.221105,5.708545 -2.323735,0.389495 -4.507815,0.05737 -6.29905,-1.583685 -1.96237,-1.79784 -2.418555,-4.09274 -1.714525,-6.572475 0.703375,-2.47746 2.50817,-3.83039 4.9851,-4.343215 0.0599,-0.0124 0.12021,-0.0228 0.25449,-0.04805 0.164005,-1.338085 0.335465,-2.693695 0.485995,-4.05163 0.0114,-0.10301 -0.100965,-0.25468 -0.19775,-0.329365 -0.98615,-0.76091 -2.04101,-1.44428 -2.96075,-2.27731 -1.83505,-1.662055 -4.014335,-2.42959 -6.406105,-2.80479 -1.407685,-0.22083 -2.7818,-0.64959 -3.761115,-1.77177 C 8.96046,18.83544 8.657485,18.201535 8.35068,17.59733 8.100825,17.10526 8.31533,16.70189 8.780625,16.452135 c 0.4637,-0.24889 1.15126,-0.132985 1.31703,0.319565 0.762915,2.08278 2.58884,2.38461 4.406005,2.720835 0.59269,0.109665 1.18797,0.20817 1.78488,0.29168 1.71479,0.239905 3.009505,1.23875 4.259925,2.327325 0.76241,0.663735 1.53758,1.312805 2.30702,1.968465 0.05664,-0.0234 0.11328,-0.0468 0.16992,-0.07017 0.0345,-0.963135 0.09908,-1.9264 0.095,-2.889375 -0.004,-0.974505 -0.07623,-1.94872 -0.12205,-3.003335 -0.25522,0 -0.45477,0.0148 -0.65155,-0.0025 -1.715785,-0.14921 -3.43464,-0.273365 -5.14483,-0.471765 -0.733865,-0.08514 -0.96089,-0.46631 -0.85204,-1.103805 0.100295,-0.5874 0.58222,-0.877915 1.254605,-0.81392 1.529665,0.14558 3.06153,0.26809 4.59272,0.39734 0.07937,0.0067 0.16079,-0.0111 0.278885,-0.0205 -0.40553,-1.37346 -0.997075,-2.65024 -2.02037,-3.60932 C 20.065,12.126405 19.30878,12.070985 18.70779,12.0264 17.77697,11.95735 16.822065,11.915695 15.90258,12.0436 12.325175,12.54124 9.525345,11.143325 7.18615,8.585475 6.372455,7.69572 5.6016,6.76279 4.869655,5.8049 4.67114,5.545105 4.556865,5.087295 4.639145,4.784225 4.721255,4.48176 5.06109,4.125875 5.35761,4.043155 c 0.24737,-0.06901 0.68013,0.14575 0.88462,0.36882 0.955115,1.04193 1.818765,2.169 2.79076,3.19389 1.924795,2.02955 4.286305,2.92774 7.0975,2.589765 0.7545,-0.09071 1.520735,-0.08384 2.311885,-0.123265 -0.42055,-0.69444 -0.861855,-1.343025 -1.22248,-2.03373 -1.063565,-2.03704 -0.881065,-3.96122 0.48193,-5.510965 0.50885,-0.578565 0.968295,-0.666675 1.45062,-0.27819 0.502815,0.404995 0.53486,1.01269 0.0495,1.585145 -0.86947,1.02553 -1.03837,2.19842 -0.34568,3.29386 0.81538,1.289465 1.83518,2.45047 2.778465,3.657705 0.22851,0.292455 0.504625,0.54772 0.81765,0.88308 0.12125,-0.4409 0.2209,-0.82729 0.333765,-1.209775 0.70426,-2.3866 1.87224,-4.562825 3.05724,-6.731445 0.55724,-1.01978 1.102205,-2.046335 1.66771,-3.06148 0.11851,-0.212745 0.30276,-0.388865 0.46493,-0.62422 C 28.11757,0 28.250905,0 28.43424,0 m -2.88453,39.25741 c 0.45998,-0.487945 0.80519,-1.02531 0.807045,-1.772045 -0.65384,0.3446 -1.250695,0.45573 -1.78829,-0.05467 -0.462525,-0.439135 -0.510315,-1.00722 -0.275435,-1.55755 0.32054,-0.751065 0.96786,-0.844285 1.70506,-0.64146 -0.482215,-1.641605 -3.558615,-2.018115 -4.78073,-0.527955 -0.98391,1.199725 -0.95305,3.336165 0.08964,4.442855 0.992575,1.05351 2.87396,1.13016 4.24271,0.110825 z"
   id="path2"
   style="stroke-width:0.125" />&#10;<path
   fill="#030303"
   opacity="1"
   stroke="none"
   d="m 1.754165,28.375155 c 0,-1.47471 0,-2.886915 0,-4.337215 1.270485,0 2.50546,0 3.80459,0 0,2.620545 0,5.228705 0,7.99078 1.069185,-1.1892 2.338605,-1.4993 3.7279,-1.534045 2.157815,-0.05397 3.712505,0.946705 4.75023,2.758485 1.0883,1.900075 1.234225,3.93805 0.61577,6.0265 -1.202695,4.061365 -6.645175,5.411 -9.38433,2.192155 0,0.51395 0,0.97959 0,1.486825 -1.17607,0 -2.308365,0 -3.51416,0 0,-4.83579 0,-9.67839 0,-14.583485 M 5.39366,35.76502 c -0.03975,0.1828 -0.08832,0.364185 -0.117875,0.548615 -0.298455,1.86237 0.723605,3.382175 2.44709,3.643415 1.82709,0.276945 3.19626,-0.735575 3.46677,-2.563735 0.245025,-1.65594 -0.61101,-3.156285 -2.00257,-3.509835 -1.75142,-0.444975 -3.1603,0.22883 -3.793415,1.88154 z"
   id="path3"
   style="stroke-width:0.125" />&#10;<path
   fill="#030303"
   opacity="1"
   stroke="none"
   d="m 38.04015,30.77748 c 1.10101,-0.399785 2.17633,-0.375075 3.23898,-0.09962 1.40283,0.36363 2.227405,1.338535 2.55851,2.70843 0.169655,0.701925 0.270475,1.43658 0.28033,2.158115 0.03355,2.45671 0.01285,4.91416 0.01285,7.41384 -1.2449,0 -2.47989,0 -3.77198,0 0,-2.013105 0.0076,-4.02651 -0.0055,-6.039775 -0.003,-0.4967 -0.03335,-1.000365 -0.12227,-1.487835 -0.169635,-0.929745 -0.741595,-1.46625 -1.552065,-1.53314 -1.095775,-0.09043 -1.89742,0.317135 -2.196415,1.23884 -0.176,0.542555 -0.24799,1.138605 -0.25641,1.712205 -0.02965,2.018285 -0.0115,4.037275 -0.0115,6.104085 -1.253555,0 -2.49045,0 -3.76134,0 0,-3.991885 0,-8.002175 0,-12.0453 1.186715,0 2.36162,0 3.601895,0 0,0.454165 0,0.898345 0,1.25377 0.650175,-0.458375 1.294505,-0.912625 1.98487,-1.38361 z"
   id="path4"
   style="stroke-width:0.125" />&#10;<path
   fill="#020202"
   opacity="1"
   stroke="none"
   d="m 40.71188,52.647615 c -0.76692,-1.25172 -1.511795,-2.463585 -2.3553,-3.83591 0,2.210275 0,4.23415 0,6.285465 -0.671765,0 -1.288925,0 -1.94713,0 0,-2.91746 0,-5.84097 0,-8.84555 0.80461,0 1.629145,-0.0193 2.451085,0.0182 0.14392,0.0065 0.31147,0.23056 0.409685,0.390095 1.045495,1.69825 2.07822,3.40436 3.11763,5.10637 0.10187,0.16681 0.22484,0.320735 0.415965,0.59078 0,-2.10672 0,-4.072815 0,-6.07294 0.650535,0 1.265535,0 1.917555,0 0,2.921955 0,5.845545 0,8.840995 -0.74884,0 -1.5131,0.01965 -2.27472,-0.0164 -0.15428,-0.0073 -0.34146,-0.197435 -0.44013,-0.35054 -0.438765,-0.680855 -0.85086,-1.378885 -1.29464,-2.110575 z"
   id="path5"
   style="stroke-width:0.125" />&#10;<path
   fill="#040404"
   opacity="1"
   stroke="none"
   d="m 27.465255,54.65618 c -1.76475,-1.2548 -2.45723,-3.26394 -1.880395,-5.36701 0.521745,-1.90222 2.057025,-3.11881 4.15023,-3.288725 2.141445,-0.17384 3.957795,0.801975 4.78073,2.568375 0.81326,1.745635 0.49733,4.03641 -0.741365,5.37548 -1.254505,1.356165 -3.562245,1.824865 -5.482725,1.104675 -0.27058,-0.10147 -0.525465,-0.244805 -0.826475,-0.392795 m 5.363615,-3.042075 c 0.03325,-0.225925 0.07608,-0.450915 0.0981,-0.67793 0.13586,-1.40035 -0.62835,-2.662185 -1.844035,-3.053115 -1.489005,-0.47882 -2.996975,0.252445 -3.47233,1.683855 -0.552835,1.66472 0.15566,3.38936 1.60253,3.900915 1.52944,0.54075 2.99235,-0.179 3.61574,-1.853725 z"
   id="path6"
   style="stroke-width:0.125" />&#10;<path
   fill="#030303"
   opacity="1"
   stroke="none"
   d="M 15.135645,54.862715 C 14.85485,54.67882 14.616005,54.51421 14.32941,54.3167 c 0.46306,-0.506345 0.904575,-0.989125 1.30894,-1.43128 0.437175,0.235225 0.81128,0.533245 1.23285,0.635405 0.40016,0.09698 0.877055,0.07098 1.2684,-0.05805 0.25649,-0.08457 0.5736,-0.44104 0.585865,-0.68944 0.0138,-0.279155 -0.21517,-0.706595 -0.46122,-0.83571 -0.637865,-0.33473 -1.349715,-0.525045 -2.02015,-0.80179 -1.741,-0.71866 -2.18027,-2.69927 -0.895545,-4.08621 0.864155,-0.93291 1.998405,-1.142795 3.19788,-1.02147 0.782995,0.0792 1.55512,0.26227 2.15112,0.896725 -0.41839,0.4509 -0.825915,0.890085 -1.26056,1.358495 -0.17502,-0.103835 -0.340035,-0.21679 -0.51759,-0.304295 -0.57032,-0.281065 -1.17221,-0.36464 -1.729065,-0.03145 -0.233875,0.139925 -0.48487,0.458625 -0.49523,0.70581 -0.01015,0.242255 0.218295,0.6051 0.4431,0.724145 0.50585,0.26788 1.069325,0.432675 1.618175,0.61248 1.336025,0.43769 1.971975,1.196785 1.978525,2.392635 0.0075,1.360715 -0.691305,2.3437 -1.9915,2.764625 -1.220825,0.39522 -2.41269,0.300145 -3.60776,-0.28459 z"
   id="path7"
   style="stroke-width:0.125" />&#10;<path
   fill="#030303"
   opacity="1"
   stroke="none"
   d="M 2.41177,48.20477 C 2.15192,47.547825 1.91357,46.934365 1.6575,46.27531 c 0.769685,0 1.46838,0 2.206525,0 0.71248,1.885455 1.43049,3.785535 2.19512,5.809 0.768265,-2.00016 1.497695,-3.8992 2.23283,-5.813095 0.67411,0 1.33711,0 2.082625,0 C 9.15534,49.23734 7.94689,52.17716 6.74602,55.098545 5.2014,55.190695 5.200555,55.191035 4.66753,53.854975 3.92203,51.98636 3.17795,50.11719 2.41177,48.20477 Z"
   id="path8"
   style="stroke-width:0.125" />&#10;<path
   fill="#060606"
   opacity="1"
   stroke="none"
   d="m 11.35808,51.250165 c 0,-1.682275 0,-3.30205 0,-4.96155 0.648225,0 1.27689,0 1.93397,0 0,2.93767 0,5.85849 0,8.808605 -0.63982,0 -1.253735,0 -1.93397,0 0,-1.26365 0,-2.524105 0,-3.847055 z"
   id="path9"
   style="stroke-width:0.125" />&#10;<path
   fill="#060606"
   opacity="1"
   stroke="none"
   d="m 24.195065,47.01965 c 0,2.717845 0,5.37565 0,8.070035 -0.65535,0 -1.269045,0 -1.92258,0 0,-2.905155 0,-5.82727 0,-8.795155 0.596565,0 1.226315,0 1.92258,0 0,0.219825 0,0.44245 0,0.72512 z"
   id="path10"
   style="stroke-width:0.125" />&#10;<path
   fill="#fcfcfc"
   opacity="1"
   stroke="none"
   d="m 25.514845,39.28716 c -1.3337,0.98975 -3.215085,0.9131 -4.20766,-0.14041 -1.04269,-1.10669 -1.07355,-3.24313 -0.08964,-4.442855 1.222115,-1.49016 4.298515,-1.11365 4.78073,0.527955 -0.7372,-0.202825 -1.38452,-0.109605 -1.70506,0.64146 -0.23488,0.55033 -0.18709,1.118415 0.275435,1.55755 0.537595,0.5104 1.13445,0.39927 1.78829,0.05467 -0.002,0.746735 -0.347065,1.2841 -0.842095,1.80163 z"
   id="path11"
   style="stroke-width:0.125" />&#10;<path
   fill="#fdfdfd"
   opacity="1"
   stroke="none"
   d="m 5.416855,35.72027 c 0.60992,-1.60796 2.0188,-2.281765 3.77022,-1.83679 1.39156,0.35355 2.247595,1.853895 2.00257,3.509835 -0.27051,1.82816 -1.63968,2.84068 -3.46677,2.563735 -1.723485,-0.26124 -2.745545,-1.781045 -2.44709,-3.643415 0.02955,-0.18443 0.07813,-0.365815 0.14107,-0.593365 z"
   id="path12"
   style="stroke-width:0.125" />&#10;<path
   fill="#fcfcfc"
   opacity="1"
   stroke="none"
   d="m 32.81019,51.660695 c -0.60471,1.628135 -2.06762,2.347885 -3.59706,1.807135 -1.44687,-0.511555 -2.155365,-2.236195 -1.60253,-3.900915 0.475355,-1.43141 1.983325,-2.162675 3.47233,-1.683855 1.215685,0.39093 1.979895,1.652765 1.844035,3.053115 -0.022,0.227015 -0.06487,0.452005 -0.116775,0.72452 z"
   id="path13"
   style="stroke-width:0.125" />&#10;</svg>
