<?xml version="1.0" standalone="yes"?>
<!DOCTYPE svg PUBLIC "-//W3C//DTD SVG 1.1//EN" "http://www.w3.org/Graphics/SVG/1.1/DTD/svg11.dtd"[
<!ENTITY E54 'matrix(1.00 0.00 0.00 1.00 4.00 164.00 ) '><!ENTITY E45 'matrix(1.00 0.00 0.00 1.00 84.00 4.00 ) '><!ENTITY E15 'M 16.975 3.0248 C 16.73886 3.06546 16.51242 3.21251 16.34286 3.49717 15.6852 4.60047 14.77066 5.80307 14.35576 7.13567 13.92228 6.64929 13.54155 6.15081 13.6769 5.99947 14.54394 5.03396 13.22386 3.50617 12.3577 4.47067 11.36065 5.58137 11.58498 7.02467 12.50337 8.11237 13.35954 9.126869 14.12797 9.595369 14.22117 11.09017 13.71315 10.73458 13.23687 10.31038 12.67657 10.05927 12.01987 9.76308 10.16017 9.93013 9.818172 9.16561 9.266643 7.92891 7.657972 9.020451 8.210373 10.25711 8.769353 11.51011 9.959173 11.68241 11.05227 11.84021 12.21977 12.00775 13.06457 12.86311 14.09207 13.40411 14.02969 13.91396 13.95819 14.42471 13.91067 14.91691 13.77569 16.29881 15.64077 16.28731 15.77407 14.91691 15.90887 13.52981 16.18661 11.99041 16.06815 10.55711 18.20435 10.63938 21.03795 9.132412 21.83435 6.778212 22.27408 5.481912 20.47085 4.919911 20.03685 6.203712 19.77931 6.961502 18.99005 7.335611 18.40705 7.665512 17.62234 8.110412 16.88755 8.419831 16.02415 8.390021 16.08245 7.746341 16.39576 7.206521 16.71401 6.663321 17.12145 5.968041 17.53757 5.280221 17.95081 4.588721 18.46445 3.727551 17.68355 2.902821 16.97512 3.024821 z '><!ENTITY E14 'M 19.269 20.099 C 19.269 22.4871 17.3331 24.4238 14.9451 24.4238 12.5561 24.4238 10.6203 22.487 10.6203 20.099 10.6203 17.7109 12.5562 15.7751 14.9451 15.7751 17.3332 15.7751 19.269 17.711 19.269 20.099 z '><!ENTITY E11 'matrix(1.00 0.00 0.00 1.00 244.00 84.00 ) '><!ENTITY E9 'matrix(1.00 0.00 0.00 1.00 0.00 0.00 ) '><!ENTITY E43 'M 15.011 14.916 15.15146 23.9388 M 23.14376 10.5618 15.01096 14.9158 6.97086 10.5618 M 6.924747 10.5618 15.15145 5.893101 23.14375 10.5618 23.14375 19.2433 15.15145 23.9386 6.924747 19.2433 z '><!ENTITY E16 'stroke:none;fill-rule:evenodd;opacity:1;fill:rgb(255,255,255);'><!ENTITY E13 'stroke:rgb(169,169,169);fill:none;stroke-linecap:butt;stroke-miterlimit:9;opacity:1;stroke-width:2;stroke-linejoin:miter;'><!ENTITY E42 'stroke:none;opacity:1;fill:rgb(91,178,126);'><!ENTITY E12 'M 1.5363 7.8 C 1.99103 6.9385 2.52798 6.1205 3.1403 5.3587 3.7527 4.5967 4.4403 3.8909 5.1968 3.254 5.95315 2.617 6.7782 2.049 7.665299 1.5627 M 0.4537992 19.4997 C 0.1435492 18.4956 -0.05714077 17.4835 -0.1564507 16.4769 -0.2551987 15.4701 -0.2516447 14.4684 -0.1525816 13.4844 -0.05334165 12.5007 0.1414284 11.5347 0.4251484 10.5993 M 7.892348 28.3993 C 7.030958 27.9447 6.212848 27.4077 5.450948 26.7954 4.689008 26.1831 3.983248 25.4954 3.346348 24.739 2.709558 23.9826 2.141548 23.1575 1.655148 22.2704 M 19.49415 29.4993 C 18.48995 29.8096 17.47785 30.0103 16.47125 30.1096 15.46445 30.2084 14.46285 30.2049 13.47895 30.1018 12.49507 30.0028 11.52915 29.8079 10.59365 29.5242 M 28.46365 22.0993 C 28.00892 22.9606 27.472 23.7788 26.85965 24.5407 26.24738 25.3026 25.55945 26.0084 24.80315 26.6453 24.0468 27.2822 23.22175 27.8502 22.33465 28.3365 M 29.54565 10.4995 C 29.85594 11.5037 30.05659 12.5157 30.15594 13.5224 30.25481 14.5292 30.25114 15.531 30.15199 16.5147 30.05279 17.4986 29.85802 18.4646 29.5743 19.4 M 22.10769 1.499998 C 22.96908 1.954698 23.7872 2.491698 24.5491 3.103898 25.31104 3.716298 26.0168 4.404098 26.65369 5.160398 27.29052 5.916898 27.85859 6.741898 28.34499 7.629098 M 10.50499 0.3999977 C 11.50919 0.08969772 12.52109 -0.1109023 13.52779 -0.2103023 14.53469 -0.3090023 15.53619 -0.3055023 16.52009 -0.2103023 17.50401 -0.1111023 18.46999 0.08369771 19.40549 0.3673977 '><!ENTITY E18 'stroke:rgb(255,255,255);fill:none;stroke-linecap:butt;stroke-miterlimit:9;opacity:1;stroke-width:1.8061;stroke-linejoin:miter;'><!ENTITY E37 'matrix(1.00 0.00 0.00 1.00 164.00 244.00 ) '><!ENTITY E6 'stroke:rgb(255,255,255);fill:none;stroke-linecap:butt;stroke-miterlimit:9;opacity:1;stroke-width:2;stroke-linejoin:miter;'><!ENTITY E17 'stroke:none;opacity:1;fill:rgb(255,255,255);'><!ENTITY E25 'matrix(1.00 0.00 0.00 1.00 164.00 4.00 ) '><!ENTITY E22 'matrix(1.00 0.00 0.00 1.00 244.00 324.00 ) '><!ENTITY E50 'matrix(1.00 0.00 0.00 1.00 84.00 164.00 ) '><!ENTITY E3 'matrix(1.00 0.00 0.00 1.00 244.00 4.00 ) '><!ENTITY E48 'matrix(1.00 0.00 0.00 1.00 84.00 84.00 ) '><!ENTITY E41 'matrix(1.00 0.00 0.00 1.00 164.00 324.00 ) '><!ENTITY E52 'matrix(1.00 0.00 0.00 1.00 84.00 244.00 ) '><!ENTITY E28 'matrix(1.00 0.00 0.00 1.00 164.00 84.00 ) '><!ENTITY E20 'matrix(1.00 0.00 0.00 1.00 244.00 244.00 ) '><!ENTITY E4 'stroke:none;opacity:1;fill:rgb(238,192,75);'><!ENTITY E1 'stroke:rgb(169,169,169);fill:none;stroke-linecap:butt;stroke-miterlimit:9;opacity:1;stroke-width:1;stroke-linejoin:miter;'><!ENTITY E33 'matrix(1.00 0.00 0.00 1.00 164.00 164.00 ) '><!ENTITY E40 'M 31.179 5.2 C 34.9985 11.0918 34.9814 18.682 31.13552 24.557 '>
]>
<svg width="310.3698" height="386.6504" id="SvgGdi_output" xmlns="http://www.w3.org/2000/svg" xmlns:xlink="http://www.w3.org/1999/xlink">
  <style>text { fill: #000; } @media (prefers-color-scheme: dark) { text { fill: #eee; } }</style>
  <rect id="background" height="100.00%" style="fill:none;" width="100.00%" y="0.00" x="0.00" />
  <g style="shape-rendering:auto;" id="root_group">
    <line y1="19.00" style="stroke:rgb(169,169,169);fill:none;stroke-linecap:butt;stroke-miterlimit:9;opacity:1;stroke-width:1;stroke-linejoin:miter;" id="2" x2="240.00" y2="19.00" x1="198.00" />
    <line y1="99.00" style="stroke:rgb(169,169,169);fill:none;stroke-linecap:butt;stroke-miterlimit:9;opacity:1;stroke-width:1;stroke-linejoin:miter;" id="3" x2="240.00" y2="99.00" x1="198.00" />
    <line y1="179.00" id="4" x2="240.00" y2="99.00" x1="198.00" style="stroke-dasharray:4.00 2.00 ;stroke:rgb(169,169,169);fill:none;stroke-linecap:butt;stroke-miterlimit:9;opacity:1;stroke-width:1;stroke-linejoin:miter;" />
    <line y1="259.00" style="stroke:rgb(169,169,169);fill:none;stroke-linecap:butt;stroke-miterlimit:9;opacity:1;stroke-width:1;stroke-linejoin:miter;" id="5" x2="240.00" y2="259.00" x1="198.00" />
    <line y1="339.00" style="stroke:rgb(169,169,169);fill:none;stroke-linecap:butt;stroke-miterlimit:9;opacity:1;stroke-width:1;stroke-linejoin:miter;" id="6" x2="240.00" y2="339.00" x1="198.00" />
    <line y1="19.00" style="stroke:rgb(169,169,169);fill:none;stroke-linecap:butt;stroke-miterlimit:9;opacity:1;stroke-width:1;stroke-linejoin:miter;" id="7" x2="160.00" y2="19.00" x1="118.00" />
    <line y1="99.00" style="stroke:rgb(169,169,169);fill:none;stroke-linecap:butt;stroke-miterlimit:9;opacity:1;stroke-width:1;stroke-linejoin:miter;" id="8" x2="160.00" y2="99.00" x1="118.00" />
    <line y1="179.00" style="stroke:rgb(169,169,169);fill:none;stroke-linecap:butt;stroke-miterlimit:9;opacity:1;stroke-width:1;stroke-linejoin:miter;" id="9" x2="160.00" y2="179.00" x1="118.00" />
    <line y1="259.00" style="stroke:rgb(169,169,169);fill:none;stroke-linecap:butt;stroke-miterlimit:9;opacity:1;stroke-width:1;stroke-linejoin:miter;" id="10" x2="160.00" y2="259.00" x1="118.00" />
    <line y1="179.00" style="stroke:rgb(169,169,169);fill:none;stroke-linecap:butt;stroke-miterlimit:9;opacity:1;stroke-width:1;stroke-linejoin:miter;" id="11" x2="80.00" y2="179.00" x1="38.00" />
    <ellipse id="44" cy="15.00" cx="15.00" transform="matrix(1.00 0.00 0.00 1.00 244.00 4.00 ) " rx="15.00" ry="15.00" style="stroke:none;opacity:1;fill:rgb(238,192,75);" />
    <path style="stroke:rgb(255,255,255);fill:none;stroke-linecap:butt;stroke-miterlimit:9;opacity:1;stroke-width:2;stroke-linejoin:miter;" transform="matrix(1.00 0.00 0.00 1.00 244.00 4.00 ) " id="50" d="M 7.3965 19.566 7.3965 10.8433 " />
    <path style="stroke:rgb(255,255,255);fill:none;stroke-linecap:butt;stroke-miterlimit:9;opacity:1;stroke-width:2;stroke-linejoin:miter;" transform="matrix(1.00 0.00 0.00 1.00 244.00 4.00 ) " id="51" d="M 11.085 22.137 14.2178 8.273999 " />
    <ellipse id="52" cy="15.15" cx="20.49" transform="matrix(1.00 0.00 0.00 1.00 244.00 4.00 ) " rx="4.18" ry="4.18" style="stroke:rgb(255,255,255);fill:none;stroke-linecap:butt;stroke-miterlimit:9;opacity:1;stroke-width:2;stroke-linejoin:miter;" />
    <text id="53" transform="matrix(1.00 0.00 0.00 1.00 0.00 0.00 ) " x="244.00px" y="39.00px" style="stroke:none;clip-path:url(#55_text_clipper);font-family:Microsoft Sans Serif;font-size:8.25pt;opacity:1;">
      <tspan dy="8.25pt" id="57">Load</tspan>
    </text>
    <text id="59" transform="matrix(1.00 0.00 0.00 1.00 0.00 0.00 ) " x="244.00px" y="51.45px" style="stroke:none;clip-path:url(#61_text_clipper);font-family:Microsoft Sans Serif;font-size:8.25pt;opacity:1;">
      <tspan dy="8.25pt" id="63">Resources</tspan>
    </text>
    <ellipse id="65" cy="15.00" cx="15.00" transform="matrix(1.00 0.00 0.00 1.00 244.00 84.00 ) " rx="15.00" ry="15.00" style="stroke:none;opacity:1;fill:rgb(238,192,75);" />
    <path d="M 1.5363 7.8 C 1.99103 6.9385 2.52798 6.1205 3.1403 5.3587 3.7527 4.5967 4.4403 3.8909 5.1968 3.254 5.95315 2.617 6.7782 2.049 7.665299 1.5627 M 0.4537992 19.4997 C 0.1435492 18.4956 -0.05714077 17.4835 -0.1564507 16.4769 -0.2551987 15.4701 -0.2516447 14.4684 -0.1525816 13.4844 -0.05334165 12.5007 0.1414284 11.5347 0.4251484 10.5993 M 7.892348 28.3993 C 7.030958 27.9447 6.212848 27.4077 5.450948 26.7954 4.689008 26.1831 3.983248 25.4954 3.346348 24.739 2.709558 23.9826 2.141548 23.1575 1.655148 22.2704 M 19.49415 29.4993 C 18.48995 29.8096 17.47785 30.0103 16.47125 30.1096 15.46445 30.2084 14.46285 30.2049 13.47895 30.1018 12.49507 30.0028 11.52915 29.8079 10.59365 29.5242 M 28.46365 22.0993 C 28.00892 22.9606 27.472 23.7788 26.85965 24.5407 26.24738 25.3026 25.55945 26.0084 24.80315 26.6453 24.0468 27.2822 23.22175 27.8502 22.33465 28.3365 M 29.54565 10.4995 C 29.85594 11.5037 30.05659 12.5157 30.15594 13.5224 30.25481 14.5292 30.25114 15.531 30.15199 16.5147 30.05279 17.4986 29.85802 18.4646 29.5743 19.4 M 22.10769 1.499998 C 22.96908 1.954698 23.7872 2.491698 24.5491 3.103898 25.31104 3.716298 26.0168 4.404098 26.65369 5.160398 27.29052 5.916898 27.85859 6.741898 28.34499 7.629098 M 10.50499 0.3999977 C 11.50919 0.08969772 12.52109 -0.1109023 13.52779 -0.2103023 14.53469 -0.3090023 15.53619 -0.3055023 16.52009 -0.2103023 17.50401 -0.1111023 18.46999 0.08369771 19.40549 0.3673977 " style="stroke:rgb(169,169,169);fill:none;stroke-linecap:butt;stroke-miterlimit:9;opacity:1;stroke-width:2;stroke-linejoin:miter;" transform="matrix(1.00 0.00 0.00 1.00 244.00 84.00 ) " id="68" />
    <path d="M 19.269 20.099 C 19.269 22.4871 17.3331 24.4238 14.9451 24.4238 12.5561 24.4238 10.6203 22.487 10.6203 20.099 10.6203 17.7109 12.5562 15.7751 14.9451 15.7751 17.3332 15.7751 19.269 17.711 19.269 20.099 z " style="stroke:rgb(255,255,255);fill:none;stroke-linecap:butt;stroke-miterlimit:9;opacity:1;stroke-width:2;stroke-linejoin:miter;" transform="matrix(1.00 0.00 0.00 1.00 244.00 84.00 ) " id="73" />
    <path d="M 16.975 3.0248 C 16.73886 3.06546 16.51242 3.21251 16.34286 3.49717 15.6852 4.60047 14.77066 5.80307 14.35576 7.13567 13.92228 6.64929 13.54155 6.15081 13.6769 5.99947 14.54394 5.03396 13.22386 3.50617 12.3577 4.47067 11.36065 5.58137 11.58498 7.02467 12.50337 8.11237 13.35954 9.126869 14.12797 9.595369 14.22117 11.09017 13.71315 10.73458 13.23687 10.31038 12.67657 10.05927 12.01987 9.76308 10.16017 9.93013 9.818172 9.16561 9.266643 7.92891 7.657972 9.020451 8.210373 10.25711 8.769353 11.51011 9.959173 11.68241 11.05227 11.84021 12.21977 12.00775 13.06457 12.86311 14.09207 13.40411 14.02969 13.91396 13.95819 14.42471 13.91067 14.91691 13.77569 16.29881 15.64077 16.28731 15.77407 14.91691 15.90887 13.52981 16.18661 11.99041 16.06815 10.55711 18.20435 10.63938 21.03795 9.132412 21.83435 6.778212 22.27408 5.481912 20.47085 4.919911 20.03685 6.203712 19.77931 6.961502 18.99005 7.335611 18.40705 7.665512 17.62234 8.110412 16.88755 8.419831 16.02415 8.390021 16.08245 7.746341 16.39576 7.206521 16.71401 6.663321 17.12145 5.968041 17.53757 5.280221 17.95081 4.588721 18.46445 3.727551 17.68355 2.902821 16.97512 3.024821 z " style="stroke:none;fill-rule:evenodd;opacity:1;fill:rgb(255,255,255);" transform="matrix(1.00 0.00 0.00 1.00 244.00 84.00 ) " id="74" />
    <ellipse id="75" cy="19.52" cx="16.06" transform="matrix(1.00 0.00 0.00 1.00 244.00 84.00 ) " rx="0.60" ry="0.60" style="stroke:none;opacity:1;fill:rgb(255,255,255);" />
    <ellipse id="76" cy="19.52" cx="16.06" transform="matrix(1.00 0.00 0.00 1.00 244.00 84.00 ) " rx="0.60" ry="0.60" style="stroke:rgb(255,255,255);fill:none;stroke-linecap:butt;stroke-miterlimit:9;opacity:1;stroke-width:1.8061;stroke-linejoin:miter;" />
    <text id="77" transform="matrix(1.00 0.00 0.00 1.00 0.00 0.00 ) " x="244.00px" y="119.00px" style="stroke:none;clip-path:url(#79_text_clipper);font-family:Microsoft Sans Serif;font-size:8.25pt;opacity:1;">
      <tspan dy="8.25pt" id="81">DrawCircle</tspan>
    </text>
    <ellipse id="83" cy="15.00" cx="15.00" transform="matrix(1.00 0.00 0.00 1.00 244.00 244.00 ) " rx="15.00" ry="15.00" style="stroke:none;opacity:1;fill:rgb(238,192,75);" />
    <path d="M 1.5363 7.8 C 1.99103 6.9385 2.52798 6.1205 3.1403 5.3587 3.7527 4.5967 4.4403 3.8909 5.1968 3.254 5.95315 2.617 6.7782 2.049 7.665299 1.5627 M 0.4537992 19.4997 C 0.1435492 18.4956 -0.05714077 17.4835 -0.1564507 16.4769 -0.2551987 15.4701 -0.2516447 14.4684 -0.1525816 13.4844 -0.05334165 12.5007 0.1414284 11.5347 0.4251484 10.5993 M 7.892348 28.3993 C 7.030958 27.9447 6.212848 27.4077 5.450948 26.7954 4.689008 26.1831 3.983248 25.4954 3.346348 24.739 2.709558 23.9826 2.141548 23.1575 1.655148 22.2704 M 19.49415 29.4993 C 18.48995 29.8096 17.47785 30.0103 16.47125 30.1096 15.46445 30.2084 14.46285 30.2049 13.47895 30.1018 12.49507 30.0028 11.52915 29.8079 10.59365 29.5242 M 28.46365 22.0993 C 28.00892 22.9606 27.472 23.7788 26.85965 24.5407 26.24738 25.3026 25.55945 26.0084 24.80315 26.6453 24.0468 27.2822 23.22175 27.8502 22.33465 28.3365 M 29.54565 10.4995 C 29.85594 11.5037 30.05659 12.5157 30.15594 13.5224 30.25481 14.5292 30.25114 15.531 30.15199 16.5147 30.05279 17.4986 29.85802 18.4646 29.5743 19.4 M 22.10769 1.499998 C 22.96908 1.954698 23.7872 2.491698 24.5491 3.103898 25.31104 3.716298 26.0168 4.404098 26.65369 5.160398 27.29052 5.916898 27.85859 6.741898 28.34499 7.629098 M 10.50499 0.3999977 C 11.50919 0.08969772 12.52109 -0.1109023 13.52779 -0.2103023 14.53469 -0.3090023 15.53619 -0.3055023 16.52009 -0.2103023 17.50401 -0.1111023 18.46999 0.08369771 19.40549 0.3673977 " style="stroke:rgb(169,169,169);fill:none;stroke-linecap:butt;stroke-miterlimit:9;opacity:1;stroke-width:2;stroke-linejoin:miter;" transform="matrix(1.00 0.00 0.00 1.00 244.00 244.00 ) " id="84" />
    <path d="M 19.269 20.099 C 19.269 22.4871 17.3331 24.4238 14.9451 24.4238 12.5561 24.4238 10.6203 22.487 10.6203 20.099 10.6203 17.7109 12.5562 15.7751 14.9451 15.7751 17.3332 15.7751 19.269 17.711 19.269 20.099 z " style="stroke:rgb(255,255,255);fill:none;stroke-linecap:butt;stroke-miterlimit:9;opacity:1;stroke-width:2;stroke-linejoin:miter;" transform="matrix(1.00 0.00 0.00 1.00 244.00 244.00 ) " id="85" />
    <path d="M 16.975 3.0248 C 16.73886 3.06546 16.51242 3.21251 16.34286 3.49717 15.6852 4.60047 14.77066 5.80307 14.35576 7.13567 13.92228 6.64929 13.54155 6.15081 13.6769 5.99947 14.54394 5.03396 13.22386 3.50617 12.3577 4.47067 11.36065 5.58137 11.58498 7.02467 12.50337 8.11237 13.35954 9.126869 14.12797 9.595369 14.22117 11.09017 13.71315 10.73458 13.23687 10.31038 12.67657 10.05927 12.01987 9.76308 10.16017 9.93013 9.818172 9.16561 9.266643 7.92891 7.657972 9.020451 8.210373 10.25711 8.769353 11.51011 9.959173 11.68241 11.05227 11.84021 12.21977 12.00775 13.06457 12.86311 14.09207 13.40411 14.02969 13.91396 13.95819 14.42471 13.91067 14.91691 13.77569 16.29881 15.64077 16.28731 15.77407 14.91691 15.90887 13.52981 16.18661 11.99041 16.06815 10.55711 18.20435 10.63938 21.03795 9.132412 21.83435 6.778212 22.27408 5.481912 20.47085 4.919911 20.03685 6.203712 19.77931 6.961502 18.99005 7.335611 18.40705 7.665512 17.62234 8.110412 16.88755 8.419831 16.02415 8.390021 16.08245 7.746341 16.39576 7.206521 16.71401 6.663321 17.12145 5.968041 17.53757 5.280221 17.95081 4.588721 18.46445 3.727551 17.68355 2.902821 16.97512 3.024821 z " style="stroke:none;fill-rule:evenodd;opacity:1;fill:rgb(255,255,255);" transform="matrix(1.00 0.00 0.00 1.00 244.00 244.00 ) " id="86" />
    <ellipse id="87" cy="19.52" cx="16.06" transform="matrix(1.00 0.00 0.00 1.00 244.00 244.00 ) " rx="0.60" ry="0.60" style="stroke:none;opacity:1;fill:rgb(255,255,255);" />
    <ellipse id="88" cy="19.52" cx="16.06" transform="matrix(1.00 0.00 0.00 1.00 244.00 244.00 ) " rx="0.60" ry="0.60" style="stroke:rgb(255,255,255);fill:none;stroke-linecap:butt;stroke-miterlimit:9;opacity:1;stroke-width:1.8061;stroke-linejoin:miter;" />
    <text id="89" transform="matrix(1.00 0.00 0.00 1.00 0.00 0.00 ) " x="244.00px" y="279.00px" style="stroke:none;clip-path:url(#91_text_clipper);font-family:Microsoft Sans Serif;font-size:8.25pt;opacity:1;">
      <tspan dy="8.25pt" id="93">LogEvent</tspan>
    </text>
    <ellipse id="95" cy="15.00" cx="15.00" transform="matrix(1.00 0.00 0.00 1.00 244.00 324.00 ) " rx="15.00" ry="15.00" style="stroke:none;opacity:1;fill:rgb(238,192,75);" />
    <path d="M 1.5363 7.8 C 1.99103 6.9385 2.52798 6.1205 3.1403 5.3587 3.7527 4.5967 4.4403 3.8909 5.1968 3.254 5.95315 2.617 6.7782 2.049 7.665299 1.5627 M 0.4537992 19.4997 C 0.1435492 18.4956 -0.05714077 17.4835 -0.1564507 16.4769 -0.2551987 15.4701 -0.2516447 14.4684 -0.1525816 13.4844 -0.05334165 12.5007 0.1414284 11.5347 0.4251484 10.5993 M 7.892348 28.3993 C 7.030958 27.9447 6.212848 27.4077 5.450948 26.7954 4.689008 26.1831 3.983248 25.4954 3.346348 24.739 2.709558 23.9826 2.141548 23.1575 1.655148 22.2704 M 19.49415 29.4993 C 18.48995 29.8096 17.47785 30.0103 16.47125 30.1096 15.46445 30.2084 14.46285 30.2049 13.47895 30.1018 12.49507 30.0028 11.52915 29.8079 10.59365 29.5242 M 28.46365 22.0993 C 28.00892 22.9606 27.472 23.7788 26.85965 24.5407 26.24738 25.3026 25.55945 26.0084 24.80315 26.6453 24.0468 27.2822 23.22175 27.8502 22.33465 28.3365 M 29.54565 10.4995 C 29.85594 11.5037 30.05659 12.5157 30.15594 13.5224 30.25481 14.5292 30.25114 15.531 30.15199 16.5147 30.05279 17.4986 29.85802 18.4646 29.5743 19.4 M 22.10769 1.499998 C 22.96908 1.954698 23.7872 2.491698 24.5491 3.103898 25.31104 3.716298 26.0168 4.404098 26.65369 5.160398 27.29052 5.916898 27.85859 6.741898 28.34499 7.629098 M 10.50499 0.3999977 C 11.50919 0.08969772 12.52109 -0.1109023 13.52779 -0.2103023 14.53469 -0.3090023 15.53619 -0.3055023 16.52009 -0.2103023 17.50401 -0.1111023 18.46999 0.08369771 19.40549 0.3673977 " style="stroke:rgb(169,169,169);fill:none;stroke-linecap:butt;stroke-miterlimit:9;opacity:1;stroke-width:2;stroke-linejoin:miter;" transform="matrix(1.00 0.00 0.00 1.00 244.00 324.00 ) " id="96" />
    <path d="M 19.269 20.099 C 19.269 22.4871 17.3331 24.4238 14.9451 24.4238 12.5561 24.4238 10.6203 22.487 10.6203 20.099 10.6203 17.7109 12.5562 15.7751 14.9451 15.7751 17.3332 15.7751 19.269 17.711 19.269 20.099 z " style="stroke:rgb(255,255,255);fill:none;stroke-linecap:butt;stroke-miterlimit:9;opacity:1;stroke-width:2;stroke-linejoin:miter;" transform="matrix(1.00 0.00 0.00 1.00 244.00 324.00 ) " id="97" />
    <path d="M 16.975 3.0248 C 16.73886 3.06546 16.51242 3.21251 16.34286 3.49717 15.6852 4.60047 14.77066 5.80307 14.35576 7.13567 13.92228 6.64929 13.54155 6.15081 13.6769 5.99947 14.54394 5.03396 13.22386 3.50617 12.3577 4.47067 11.36065 5.58137 11.58498 7.02467 12.50337 8.11237 13.35954 9.126869 14.12797 9.595369 14.22117 11.09017 13.71315 10.73458 13.23687 10.31038 12.67657 10.05927 12.01987 9.76308 10.16017 9.93013 9.818172 9.16561 9.266643 7.92891 7.657972 9.020451 8.210373 10.25711 8.769353 11.51011 9.959173 11.68241 11.05227 11.84021 12.21977 12.00775 13.06457 12.86311 14.09207 13.40411 14.02969 13.91396 13.95819 14.42471 13.91067 14.91691 13.77569 16.29881 15.64077 16.28731 15.77407 14.91691 15.90887 13.52981 16.18661 11.99041 16.06815 10.55711 18.20435 10.63938 21.03795 9.132412 21.83435 6.778212 22.27408 5.481912 20.47085 4.919911 20.03685 6.203712 19.77931 6.961502 18.99005 7.335611 18.40705 7.665512 17.62234 8.110412 16.88755 8.419831 16.02415 8.390021 16.08245 7.746341 16.39576 7.206521 16.71401 6.663321 17.12145 5.968041 17.53757 5.280221 17.95081 4.588721 18.46445 3.727551 17.68355 2.902821 16.97512 3.024821 z " style="stroke:none;fill-rule:evenodd;opacity:1;fill:rgb(255,255,255);" transform="matrix(1.00 0.00 0.00 1.00 244.00 324.00 ) " id="98" />
    <ellipse id="99" cy="19.52" cx="16.06" transform="matrix(1.00 0.00 0.00 1.00 244.00 324.00 ) " rx="0.60" ry="0.60" style="stroke:none;opacity:1;fill:rgb(255,255,255);" />
    <ellipse id="100" cy="19.52" cx="16.06" transform="matrix(1.00 0.00 0.00 1.00 244.00 324.00 ) " rx="0.60" ry="0.60" style="stroke:rgb(255,255,255);fill:none;stroke-linecap:butt;stroke-miterlimit:9;opacity:1;stroke-width:1.8061;stroke-linejoin:miter;" />
    <text id="101" transform="matrix(1.00 0.00 0.00 1.00 0.00 0.00 ) " x="244.00px" y="359.00px" style="stroke:none;clip-path:url(#103_text_clipper);font-family:Microsoft Sans Serif;font-size:8.25pt;opacity:1;">
      <tspan dy="8.25pt" id="105">FrameEvent</tspan>
    </text>
    <text id="107" transform="matrix(1.00 0.00 0.00 1.00 0.00 0.00 ) " x="244.00px" y="371.45px" style="stroke:none;clip-path:url(#109_text_clipper);font-family:Microsoft Sans Serif;font-size:8.25pt;opacity:1;">
      <tspan dy="8.25pt" id="111">Logger</tspan>
    </text>
    <ellipse id="113" cy="15.00" cx="15.00" transform="matrix(1.00 0.00 0.00 1.00 164.00 4.00 ) " rx="15.00" ry="15.00" style="stroke:none;opacity:1;fill:rgb(238,192,75);" />
    <path d="M 1.5363 7.8 C 1.99103 6.9385 2.52798 6.1205 3.1403 5.3587 3.7527 4.5967 4.4403 3.8909 5.1968 3.254 5.95315 2.617 6.7782 2.049 7.665299 1.5627 M 0.4537992 19.4997 C 0.1435492 18.4956 -0.05714077 17.4835 -0.1564507 16.4769 -0.2551987 15.4701 -0.2516447 14.4684 -0.1525816 13.4844 -0.05334165 12.5007 0.1414284 11.5347 0.4251484 10.5993 M 7.892348 28.3993 C 7.030958 27.9447 6.212848 27.4077 5.450948 26.7954 4.689008 26.1831 3.983248 25.4954 3.346348 24.739 2.709558 23.9826 2.141548 23.1575 1.655148 22.2704 M 19.49415 29.4993 C 18.48995 29.8096 17.47785 30.0103 16.47125 30.1096 15.46445 30.2084 14.46285 30.2049 13.47895 30.1018 12.49507 30.0028 11.52915 29.8079 10.59365 29.5242 M 28.46365 22.0993 C 28.00892 22.9606 27.472 23.7788 26.85965 24.5407 26.24738 25.3026 25.55945 26.0084 24.80315 26.6453 24.0468 27.2822 23.22175 27.8502 22.33465 28.3365 M 29.54565 10.4995 C 29.85594 11.5037 30.05659 12.5157 30.15594 13.5224 30.25481 14.5292 30.25114 15.531 30.15199 16.5147 30.05279 17.4986 29.85802 18.4646 29.5743 19.4 M 22.10769 1.499998 C 22.96908 1.954698 23.7872 2.491698 24.5491 3.103898 25.31104 3.716298 26.0168 4.404098 26.65369 5.160398 27.29052 5.916898 27.85859 6.741898 28.34499 7.629098 M 10.50499 0.3999977 C 11.50919 0.08969772 12.52109 -0.1109023 13.52779 -0.2103023 14.53469 -0.3090023 15.53619 -0.3055023 16.52009 -0.2103023 17.50401 -0.1111023 18.46999 0.08369771 19.40549 0.3673977 " style="stroke:rgb(169,169,169);fill:none;stroke-linecap:butt;stroke-miterlimit:9;opacity:1;stroke-width:2;stroke-linejoin:miter;" transform="matrix(1.00 0.00 0.00 1.00 164.00 4.00 ) " id="114" />
    <path d="M 19.269 20.099 C 19.269 22.4871 17.3331 24.4238 14.9451 24.4238 12.5561 24.4238 10.6203 22.487 10.6203 20.099 10.6203 17.7109 12.5562 15.7751 14.9451 15.7751 17.3332 15.7751 19.269 17.711 19.269 20.099 z " style="stroke:rgb(255,255,255);fill:none;stroke-linecap:butt;stroke-miterlimit:9;opacity:1;stroke-width:2;stroke-linejoin:miter;" transform="matrix(1.00 0.00 0.00 1.00 164.00 4.00 ) " id="115" />
    <path d="M 16.975 3.0248 C 16.73886 3.06546 16.51242 3.21251 16.34286 3.49717 15.6852 4.60047 14.77066 5.80307 14.35576 7.13567 13.92228 6.64929 13.54155 6.15081 13.6769 5.99947 14.54394 5.03396 13.22386 3.50617 12.3577 4.47067 11.36065 5.58137 11.58498 7.02467 12.50337 8.11237 13.35954 9.126869 14.12797 9.595369 14.22117 11.09017 13.71315 10.73458 13.23687 10.31038 12.67657 10.05927 12.01987 9.76308 10.16017 9.93013 9.818172 9.16561 9.266643 7.92891 7.657972 9.020451 8.210373 10.25711 8.769353 11.51011 9.959173 11.68241 11.05227 11.84021 12.21977 12.00775 13.06457 12.86311 14.09207 13.40411 14.02969 13.91396 13.95819 14.42471 13.91067 14.91691 13.77569 16.29881 15.64077 16.28731 15.77407 14.91691 15.90887 13.52981 16.18661 11.99041 16.06815 10.55711 18.20435 10.63938 21.03795 9.132412 21.83435 6.778212 22.27408 5.481912 20.47085 4.919911 20.03685 6.203712 19.77931 6.961502 18.99005 7.335611 18.40705 7.665512 17.62234 8.110412 16.88755 8.419831 16.02415 8.390021 16.08245 7.746341 16.39576 7.206521 16.71401 6.663321 17.12145 5.968041 17.53757 5.280221 17.95081 4.588721 18.46445 3.727551 17.68355 2.902821 16.97512 3.024821 z " style="stroke:none;fill-rule:evenodd;opacity:1;fill:rgb(255,255,255);" transform="matrix(1.00 0.00 0.00 1.00 164.00 4.00 ) " id="116" />
    <ellipse id="117" cy="19.52" cx="16.06" transform="matrix(1.00 0.00 0.00 1.00 164.00 4.00 ) " rx="0.60" ry="0.60" style="stroke:none;opacity:1;fill:rgb(255,255,255);" />
    <ellipse id="118" cy="19.52" cx="16.06" transform="matrix(1.00 0.00 0.00 1.00 164.00 4.00 ) " rx="0.60" ry="0.60" style="stroke:rgb(255,255,255);fill:none;stroke-linecap:butt;stroke-miterlimit:9;opacity:1;stroke-width:1.8061;stroke-linejoin:miter;" />
    <text id="119" transform="matrix(1.00 0.00 0.00 1.00 0.00 0.00 ) " x="164.00px" y="39.00px" style="stroke:none;clip-path:url(#121_text_clipper);font-family:Microsoft Sans Serif;font-size:8.25pt;opacity:1;">
      <tspan dy="8.25pt" id="123">BonVision</tspan>
    </text>
    <text id="125" transform="matrix(1.00 0.00 0.00 1.00 0.00 0.00 ) " x="164.00px" y="51.45px" style="stroke:none;clip-path:url(#127_text_clipper);font-family:Microsoft Sans Serif;font-size:8.25pt;opacity:1;">
      <tspan dy="8.25pt" id="129">Resources</tspan>
    </text>
    <ellipse id="131" cy="15.00" cx="15.00" transform="matrix(1.00 0.00 0.00 1.00 164.00 84.00 ) " rx="15.00" ry="15.00" style="stroke:none;opacity:1;fill:rgb(238,192,75);" />
    <path d="M 1.5363 7.8 C 1.99103 6.9385 2.52798 6.1205 3.1403 5.3587 3.7527 4.5967 4.4403 3.8909 5.1968 3.254 5.95315 2.617 6.7782 2.049 7.665299 1.5627 M 0.4537992 19.4997 C 0.1435492 18.4956 -0.05714077 17.4835 -0.1564507 16.4769 -0.2551987 15.4701 -0.2516447 14.4684 -0.1525816 13.4844 -0.05334165 12.5007 0.1414284 11.5347 0.4251484 10.5993 M 7.892348 28.3993 C 7.030958 27.9447 6.212848 27.4077 5.450948 26.7954 4.689008 26.1831 3.983248 25.4954 3.346348 24.739 2.709558 23.9826 2.141548 23.1575 1.655148 22.2704 M 19.49415 29.4993 C 18.48995 29.8096 17.47785 30.0103 16.47125 30.1096 15.46445 30.2084 14.46285 30.2049 13.47895 30.1018 12.49507 30.0028 11.52915 29.8079 10.59365 29.5242 M 28.46365 22.0993 C 28.00892 22.9606 27.472 23.7788 26.85965 24.5407 26.24738 25.3026 25.55945 26.0084 24.80315 26.6453 24.0468 27.2822 23.22175 27.8502 22.33465 28.3365 M 29.54565 10.4995 C 29.85594 11.5037 30.05659 12.5157 30.15594 13.5224 30.25481 14.5292 30.25114 15.531 30.15199 16.5147 30.05279 17.4986 29.85802 18.4646 29.5743 19.4 M 22.10769 1.499998 C 22.96908 1.954698 23.7872 2.491698 24.5491 3.103898 25.31104 3.716298 26.0168 4.404098 26.65369 5.160398 27.29052 5.916898 27.85859 6.741898 28.34499 7.629098 M 10.50499 0.3999977 C 11.50919 0.08969772 12.52109 -0.1109023 13.52779 -0.2103023 14.53469 -0.3090023 15.53619 -0.3055023 16.52009 -0.2103023 17.50401 -0.1111023 18.46999 0.08369771 19.40549 0.3673977 " style="stroke:rgb(169,169,169);fill:none;stroke-linecap:butt;stroke-miterlimit:9;opacity:1;stroke-width:2;stroke-linejoin:miter;" transform="matrix(1.00 0.00 0.00 1.00 164.00 84.00 ) " id="132" />
    <path d="M 19.269 20.099 C 19.269 22.4871 17.3331 24.4238 14.9451 24.4238 12.5561 24.4238 10.6203 22.487 10.6203 20.099 10.6203 17.7109 12.5562 15.7751 14.9451 15.7751 17.3332 15.7751 19.269 17.711 19.269 20.099 z " style="stroke:rgb(255,255,255);fill:none;stroke-linecap:butt;stroke-miterlimit:9;opacity:1;stroke-width:2;stroke-linejoin:miter;" transform="matrix(1.00 0.00 0.00 1.00 164.00 84.00 ) " id="133" />
    <path d="M 16.975 3.0248 C 16.73886 3.06546 16.51242 3.21251 16.34286 3.49717 15.6852 4.60047 14.77066 5.80307 14.35576 7.13567 13.92228 6.64929 13.54155 6.15081 13.6769 5.99947 14.54394 5.03396 13.22386 3.50617 12.3577 4.47067 11.36065 5.58137 11.58498 7.02467 12.50337 8.11237 13.35954 9.126869 14.12797 9.595369 14.22117 11.09017 13.71315 10.73458 13.23687 10.31038 12.67657 10.05927 12.01987 9.76308 10.16017 9.93013 9.818172 9.16561 9.266643 7.92891 7.657972 9.020451 8.210373 10.25711 8.769353 11.51011 9.959173 11.68241 11.05227 11.84021 12.21977 12.00775 13.06457 12.86311 14.09207 13.40411 14.02969 13.91396 13.95819 14.42471 13.91067 14.91691 13.77569 16.29881 15.64077 16.28731 15.77407 14.91691 15.90887 13.52981 16.18661 11.99041 16.06815 10.55711 18.20435 10.63938 21.03795 9.132412 21.83435 6.778212 22.27408 5.481912 20.47085 4.919911 20.03685 6.203712 19.77931 6.961502 18.99005 7.335611 18.40705 7.665512 17.62234 8.110412 16.88755 8.419831 16.02415 8.390021 16.08245 7.746341 16.39576 7.206521 16.71401 6.663321 17.12145 5.968041 17.53757 5.280221 17.95081 4.588721 18.46445 3.727551 17.68355 2.902821 16.97512 3.024821 z " style="stroke:none;fill-rule:evenodd;opacity:1;fill:rgb(255,255,255);" transform="matrix(1.00 0.00 0.00 1.00 164.00 84.00 ) " id="134" />
    <ellipse id="135" cy="19.52" cx="16.06" transform="matrix(1.00 0.00 0.00 1.00 164.00 84.00 ) " rx="0.60" ry="0.60" style="stroke:none;opacity:1;fill:rgb(255,255,255);" />
    <ellipse id="136" cy="19.52" cx="16.06" transform="matrix(1.00 0.00 0.00 1.00 164.00 84.00 ) " rx="0.60" ry="0.60" style="stroke:rgb(255,255,255);fill:none;stroke-linecap:butt;stroke-miterlimit:9;opacity:1;stroke-width:1.8061;stroke-linejoin:miter;" />
    <text id="137" transform="matrix(1.00 0.00 0.00 1.00 0.00 0.00 ) " x="164.00px" y="119.00px" style="stroke:none;clip-path:url(#139_text_clipper);font-family:Microsoft Sans Serif;font-size:8.25pt;opacity:1;">
      <tspan dy="8.25pt" id="141">Normalized</tspan>
    </text>
    <text id="143" transform="matrix(1.00 0.00 0.00 1.00 0.00 0.00 ) " x="164.00px" y="131.45px" style="stroke:none;clip-path:url(#145_text_clipper);font-family:Microsoft Sans Serif;font-size:8.25pt;opacity:1;">
      <tspan dy="8.25pt" id="147">View</tspan>
    </text>
    <path transform="matrix(1.00 0.00 0.00 1.00 164.00 164.00 ) " id="151" d="M 15 0 C 15.40124 0 15.79355 0 16.1868 0.032679 L 17.4764 1.671279 C 18.19501 1.803959 18.878 1.976879 19.5521 2.217729 L 21.4286 1.483419 C 22.13968 1.823279 22.8289 2.226899 23.4726 2.670219 L 23.8493 4.621219 C 24.39461 5.086599 24.9133 5.605469 25.3788 6.150719 L 27.3298 6.494379 C 27.77262 7.137679 28.17707 7.860779 28.5166 8.57128 L 27.74584 10.44788 C 27.98674 11.12204 28.19601 11.80508 28.32852 12.52348 L 29.96712 13.81308 C 29.99807 14.2062 30.00009 14.59888 30.00009 14.99988 30.00009 15.39224 29.99671 15.76908 29.96712 16.15388 L 28.32852 17.43998 C 28.19832 18.14633 28.01721 18.85248 27.78226 19.51558 L 28.51657 21.42868 C 28.17593 22.14291 27.77461 22.82648 27.32977 23.47268 L 25.37877 23.81302 C 24.91321 24.35829 24.39455 24.87682 23.84927 25.34242 L 23.47257 27.32992 C 22.82847 27.77371 22.14007 28.17669 21.42857 28.51662 L 19.51567 27.74597 C 18.85121 27.98162 18.18377 28.19809 17.47627 28.32876 L 16.18677 29.93436 C 15.79348 29.965 15.40117 29.99982 14.99997 29.99982 14.59873 29.99982 14.17345 29.96607 13.78017 29.93436 L 12.55997 28.32876 C 11.86172 28.19999 11.14067 27.977 10.48427 27.74597 L 8.571372 28.51662 C 7.856242 28.17558 7.174472 27.7755 6.527372 27.32992 L 6.150662 25.30622 C 5.617232 24.84794 5.114162 24.34789 4.657562 23.81302 L 2.670162 23.47268 C 2.225282 22.82649 1.823962 22.14288 1.483362 21.42868 L 2.254122 19.51558 C 2.022912 18.85918 1.800192 18.13838 1.671442 17.43998 L 0.06584227 16.18678 C 0.03489427 15.79366 -9.272993E-05 15.4013 -9.272993E-05 14.99998 -9.272993E-05 14.59894 0.03489527 14.20625 0.06584227 13.81318 L 1.671442 12.52358 C 1.801892 11.81616 2.018542 11.14888 2.254122 10.48438 L 1.483362 8.571277 C 1.822922 7.860797 2.227392 7.137677 2.670162 6.494377 L 4.657562 6.150717 C 5.114192 5.615747 5.617242 5.115817 6.150662 4.657517 L 6.527372 2.670117 C 7.174102 2.224717 7.856672 1.824207 8.571372 1.483317 L 10.48427 2.217627 C 11.14757 1.982687 11.85387 1.801607 12.55997 1.671177 L 13.84607 0.0325768 C 14.23082 0.003004799 14.60761 -0.0001021996 14.99987 -0.0001021996 z " style="stroke:none;fill-rule:evenodd;opacity:1;fill:rgb(128,128,128);" />
    <path style="stroke:rgb(255,255,255);fill:none;stroke-linecap:butt;stroke-miterlimit:9;opacity:1;stroke-width:2;stroke-linejoin:miter;" transform="matrix(1.00 0.00 0.00 1.00 164.00 164.00 ) " id="156" d="M 16.849 10.062 23.4027 10.062 M 16.6038 19.6084 23.3505 19.6084 M 12.3075 17.1615 7.5719 21.8971 M 7.577335 17.152 12.31704 21.8917 M 6.564136 10.0047 13.30904 10.0047 M 9.936636 6.6288 9.936636 13.3806 " />
    <ellipse id="157" cy="16.33" cx="19.93" transform="matrix(1.00 0.00 0.00 1.00 164.00 164.00 ) " rx="1.30" ry="1.30" style="stroke:none;opacity:1;fill:rgb(255,255,255);" />
    <ellipse id="158" cy="22.83" cx="19.93" transform="matrix(1.00 0.00 0.00 1.00 164.00 164.00 ) " rx="1.30" ry="1.30" style="stroke:none;opacity:1;fill:rgb(255,255,255);" />
    <text id="159" transform="matrix(1.00 0.00 0.00 1.00 0.00 0.00 ) " x="164.00px" y="199.00px" style="stroke:none;clip-path:url(#161_text_clipper);font-family:Microsoft Sans Serif;font-size:8.25pt;opacity:1;">
      <tspan dy="8.25pt" id="163">Diameter,</tspan>
    </text>
    <text id="165" transform="matrix(1.00 0.00 0.00 1.00 0.00 0.00 ) " x="164.00px" y="211.45px" style="stroke:none;clip-path:url(#167_text_clipper);font-family:Microsoft Sans Serif;font-size:8.25pt;opacity:1;">
      <tspan dy="8.25pt" id="169">LocationX</tspan>
    </text>
    <ellipse id="171" cy="15.00" cx="15.00" transform="matrix(1.00 0.00 0.00 1.00 164.00 244.00 ) " rx="15.00" ry="15.00" style="stroke:none;opacity:1;fill:rgb(238,192,75);" />
    <path d="M 1.5363 7.8 C 1.99103 6.9385 2.52798 6.1205 3.1403 5.3587 3.7527 4.5967 4.4403 3.8909 5.1968 3.254 5.95315 2.617 6.7782 2.049 7.665299 1.5627 M 0.4537992 19.4997 C 0.1435492 18.4956 -0.05714077 17.4835 -0.1564507 16.4769 -0.2551987 15.4701 -0.2516447 14.4684 -0.1525816 13.4844 -0.05334165 12.5007 0.1414284 11.5347 0.4251484 10.5993 M 7.892348 28.3993 C 7.030958 27.9447 6.212848 27.4077 5.450948 26.7954 4.689008 26.1831 3.983248 25.4954 3.346348 24.739 2.709558 23.9826 2.141548 23.1575 1.655148 22.2704 M 19.49415 29.4993 C 18.48995 29.8096 17.47785 30.0103 16.47125 30.1096 15.46445 30.2084 14.46285 30.2049 13.47895 30.1018 12.49507 30.0028 11.52915 29.8079 10.59365 29.5242 M 28.46365 22.0993 C 28.00892 22.9606 27.472 23.7788 26.85965 24.5407 26.24738 25.3026 25.55945 26.0084 24.80315 26.6453 24.0468 27.2822 23.22175 27.8502 22.33465 28.3365 M 29.54565 10.4995 C 29.85594 11.5037 30.05659 12.5157 30.15594 13.5224 30.25481 14.5292 30.25114 15.531 30.15199 16.5147 30.05279 17.4986 29.85802 18.4646 29.5743 19.4 M 22.10769 1.499998 C 22.96908 1.954698 23.7872 2.491698 24.5491 3.103898 25.31104 3.716298 26.0168 4.404098 26.65369 5.160398 27.29052 5.916898 27.85859 6.741898 28.34499 7.629098 M 10.50499 0.3999977 C 11.50919 0.08969772 12.52109 -0.1109023 13.52779 -0.2103023 14.53469 -0.3090023 15.53619 -0.3055023 16.52009 -0.2103023 17.50401 -0.1111023 18.46999 0.08369771 19.40549 0.3673977 " style="stroke:rgb(169,169,169);fill:none;stroke-linecap:butt;stroke-miterlimit:9;opacity:1;stroke-width:2;stroke-linejoin:miter;" transform="matrix(1.00 0.00 0.00 1.00 164.00 244.00 ) " id="172" />
    <path d="M 19.269 20.099 C 19.269 22.4871 17.3331 24.4238 14.9451 24.4238 12.5561 24.4238 10.6203 22.487 10.6203 20.099 10.6203 17.7109 12.5562 15.7751 14.9451 15.7751 17.3332 15.7751 19.269 17.711 19.269 20.099 z " style="stroke:rgb(255,255,255);fill:none;stroke-linecap:butt;stroke-miterlimit:9;opacity:1;stroke-width:2;stroke-linejoin:miter;" transform="matrix(1.00 0.00 0.00 1.00 164.00 244.00 ) " id="173" />
    <path d="M 16.975 3.0248 C 16.73886 3.06546 16.51242 3.21251 16.34286 3.49717 15.6852 4.60047 14.77066 5.80307 14.35576 7.13567 13.92228 6.64929 13.54155 6.15081 13.6769 5.99947 14.54394 5.03396 13.22386 3.50617 12.3577 4.47067 11.36065 5.58137 11.58498 7.02467 12.50337 8.11237 13.35954 9.126869 14.12797 9.595369 14.22117 11.09017 13.71315 10.73458 13.23687 10.31038 12.67657 10.05927 12.01987 9.76308 10.16017 9.93013 9.818172 9.16561 9.266643 7.92891 7.657972 9.020451 8.210373 10.25711 8.769353 11.51011 9.959173 11.68241 11.05227 11.84021 12.21977 12.00775 13.06457 12.86311 14.09207 13.40411 14.02969 13.91396 13.95819 14.42471 13.91067 14.91691 13.77569 16.29881 15.64077 16.28731 15.77407 14.91691 15.90887 13.52981 16.18661 11.99041 16.06815 10.55711 18.20435 10.63938 21.03795 9.132412 21.83435 6.778212 22.27408 5.481912 20.47085 4.919911 20.03685 6.203712 19.77931 6.961502 18.99005 7.335611 18.40705 7.665512 17.62234 8.110412 16.88755 8.419831 16.02415 8.390021 16.08245 7.746341 16.39576 7.206521 16.71401 6.663321 17.12145 5.968041 17.53757 5.280221 17.95081 4.588721 18.46445 3.727551 17.68355 2.902821 16.97512 3.024821 z " style="stroke:none;fill-rule:evenodd;opacity:1;fill:rgb(255,255,255);" transform="matrix(1.00 0.00 0.00 1.00 164.00 244.00 ) " id="174" />
    <ellipse id="175" cy="19.52" cx="16.06" transform="matrix(1.00 0.00 0.00 1.00 164.00 244.00 ) " rx="0.60" ry="0.60" style="stroke:none;opacity:1;fill:rgb(255,255,255);" />
    <ellipse id="176" cy="19.52" cx="16.06" transform="matrix(1.00 0.00 0.00 1.00 164.00 244.00 ) " rx="0.60" ry="0.60" style="stroke:rgb(255,255,255);fill:none;stroke-linecap:butt;stroke-miterlimit:9;opacity:1;stroke-width:1.8061;stroke-linejoin:miter;" />
    <text id="177" transform="matrix(1.00 0.00 0.00 1.00 0.00 0.00 ) " x="164.00px" y="279.00px" style="stroke:none;clip-path:url(#179_text_clipper);font-family:Microsoft Sans Serif;font-size:8.25pt;opacity:1;">
      <tspan dy="8.25pt" id="181">FrameEvent</tspan>
    </text>
    <text id="183" transform="matrix(1.00 0.00 0.00 1.00 0.00 0.00 ) " x="164.00px" y="291.45px" style="stroke:none;clip-path:url(#185_text_clipper);font-family:Microsoft Sans Serif;font-size:8.25pt;opacity:1;">
      <tspan dy="8.25pt" id="187">Logger</tspan>
    </text>
    <path d="M 31.179 5.2 C 34.9985 11.0918 34.9814 18.682 31.13552 24.557 " style="stroke:rgb(169,169,169);fill:none;stroke-linecap:butt;stroke-miterlimit:9;opacity:1;stroke-width:2;stroke-linejoin:miter;" transform="matrix(1.00 0.00 0.00 1.00 164.00 324.00 ) " id="192" />
    <ellipse id="193" cy="15.00" cx="15.00" transform="matrix(1.00 0.00 0.00 1.00 164.00 324.00 ) " rx="15.00" ry="15.00" style="stroke:none;opacity:1;fill:rgb(91,178,126);" />
    <path d="M 15.011 14.916 15.15146 23.9388 M 23.14376 10.5618 15.01096 14.9158 6.97086 10.5618 M 6.924747 10.5618 15.15145 5.893101 23.14375 10.5618 23.14375 19.2433 15.15145 23.9386 6.924747 19.2433 z " style="stroke:rgb(255,255,255);fill:none;stroke-linecap:butt;stroke-miterlimit:9;opacity:1;stroke-width:2;stroke-linejoin:miter;" transform="matrix(1.00 0.00 0.00 1.00 164.00 324.00 ) " id="196" />
    <text id="197" transform="matrix(1.00 0.00 0.00 1.00 0.00 0.00 ) " x="164.00px" y="359.00px" style="stroke:none;clip-path:url(#199_text_clipper);font-family:Microsoft Sans Serif;font-size:8.25pt;opacity:1;">
      <tspan dy="8.25pt" id="201">RenderFrame</tspan>
    </text>
    <path d="M 31.179 5.2 C 34.9985 11.0918 34.9814 18.682 31.13552 24.557 " style="stroke:rgb(169,169,169);fill:none;stroke-linecap:butt;stroke-miterlimit:9;opacity:1;stroke-width:2;stroke-linejoin:miter;" transform="matrix(1.00 0.00 0.00 1.00 84.00 4.00 ) " id="203" />
    <ellipse id="204" cy="15.00" cx="15.00" transform="matrix(1.00 0.00 0.00 1.00 84.00 4.00 ) " rx="15.00" ry="15.00" style="stroke:none;opacity:1;fill:rgb(91,178,126);" />
    <path d="M 15.011 14.916 15.15146 23.9388 M 23.14376 10.5618 15.01096 14.9158 6.97086 10.5618 M 6.924747 10.5618 15.15145 5.893101 23.14375 10.5618 23.14375 19.2433 15.15145 23.9386 6.924747 19.2433 z " style="stroke:rgb(255,255,255);fill:none;stroke-linecap:butt;stroke-miterlimit:9;opacity:1;stroke-width:2;stroke-linejoin:miter;" transform="matrix(1.00 0.00 0.00 1.00 84.00 4.00 ) " id="205" />
    <text id="206" transform="matrix(1.00 0.00 0.00 1.00 0.00 0.00 ) " x="84.00px" y="39.00px" style="stroke:none;clip-path:url(#208_text_clipper);font-family:Microsoft Sans Serif;font-size:8.25pt;opacity:1;">
      <tspan dy="8.25pt" id="210">Create</tspan>
    </text>
    <text id="212" transform="matrix(1.00 0.00 0.00 1.00 0.00 0.00 ) " x="84.00px" y="51.45px" style="stroke:none;clip-path:url(#214_text_clipper);font-family:Microsoft Sans Serif;font-size:8.25pt;opacity:1;">
      <tspan dy="8.25pt" id="216">Window</tspan>
    </text>
    <path d="M 31.179 5.2 C 34.9985 11.0918 34.9814 18.682 31.13552 24.557 " style="stroke:rgb(169,169,169);fill:none;stroke-linecap:butt;stroke-miterlimit:9;opacity:1;stroke-width:2;stroke-linejoin:miter;" transform="matrix(1.00 0.00 0.00 1.00 84.00 84.00 ) " id="218" />
    <ellipse id="219" cy="15.00" cx="15.00" transform="matrix(1.00 0.00 0.00 1.00 84.00 84.00 ) " rx="15.00" ry="15.00" style="stroke:none;opacity:1;fill:rgb(91,178,126);" />
    <path d="M 15.011 14.916 15.15146 23.9388 M 23.14376 10.5618 15.01096 14.9158 6.97086 10.5618 M 6.924747 10.5618 15.15145 5.893101 23.14375 10.5618 23.14375 19.2433 15.15145 23.9386 6.924747 19.2433 z " style="stroke:rgb(255,255,255);fill:none;stroke-linecap:butt;stroke-miterlimit:9;opacity:1;stroke-width:2;stroke-linejoin:miter;" transform="matrix(1.00 0.00 0.00 1.00 84.00 84.00 ) " id="220" />
    <text id="221" transform="matrix(1.00 0.00 0.00 1.00 0.00 0.00 ) " x="84.00px" y="119.00px" style="stroke:none;clip-path:url(#223_text_clipper);font-family:Microsoft Sans Serif;font-size:8.25pt;opacity:1;">
      <tspan dy="8.25pt" id="225">RenderFrame</tspan>
    </text>
    <ellipse id="227" cy="15.00" cx="15.00" transform="matrix(1.00 0.00 0.00 1.00 84.00 164.00 ) " rx="15.00" ry="15.00" style="stroke:none;opacity:1;fill:rgb(238,192,75);" />
    <path d="M 1.5363 7.8 C 1.99103 6.9385 2.52798 6.1205 3.1403 5.3587 3.7527 4.5967 4.4403 3.8909 5.1968 3.254 5.95315 2.617 6.7782 2.049 7.665299 1.5627 M 0.4537992 19.4997 C 0.1435492 18.4956 -0.05714077 17.4835 -0.1564507 16.4769 -0.2551987 15.4701 -0.2516447 14.4684 -0.1525816 13.4844 -0.05334165 12.5007 0.1414284 11.5347 0.4251484 10.5993 M 7.892348 28.3993 C 7.030958 27.9447 6.212848 27.4077 5.450948 26.7954 4.689008 26.1831 3.983248 25.4954 3.346348 24.739 2.709558 23.9826 2.141548 23.1575 1.655148 22.2704 M 19.49415 29.4993 C 18.48995 29.8096 17.47785 30.0103 16.47125 30.1096 15.46445 30.2084 14.46285 30.2049 13.47895 30.1018 12.49507 30.0028 11.52915 29.8079 10.59365 29.5242 M 28.46365 22.0993 C 28.00892 22.9606 27.472 23.7788 26.85965 24.5407 26.24738 25.3026 25.55945 26.0084 24.80315 26.6453 24.0468 27.2822 23.22175 27.8502 22.33465 28.3365 M 29.54565 10.4995 C 29.85594 11.5037 30.05659 12.5157 30.15594 13.5224 30.25481 14.5292 30.25114 15.531 30.15199 16.5147 30.05279 17.4986 29.85802 18.4646 29.5743 19.4 M 22.10769 1.499998 C 22.96908 1.954698 23.7872 2.491698 24.5491 3.103898 25.31104 3.716298 26.0168 4.404098 26.65369 5.160398 27.29052 5.916898 27.85859 6.741898 28.34499 7.629098 M 10.50499 0.3999977 C 11.50919 0.08969772 12.52109 -0.1109023 13.52779 -0.2103023 14.53469 -0.3090023 15.53619 -0.3055023 16.52009 -0.2103023 17.50401 -0.1111023 18.46999 0.08369771 19.40549 0.3673977 " style="stroke:rgb(169,169,169);fill:none;stroke-linecap:butt;stroke-miterlimit:9;opacity:1;stroke-width:2;stroke-linejoin:miter;" transform="matrix(1.00 0.00 0.00 1.00 84.00 164.00 ) " id="228" />
    <path d="M 19.269 20.099 C 19.269 22.4871 17.3331 24.4238 14.9451 24.4238 12.5561 24.4238 10.6203 22.487 10.6203 20.099 10.6203 17.7109 12.5562 15.7751 14.9451 15.7751 17.3332 15.7751 19.269 17.711 19.269 20.099 z " style="stroke:rgb(255,255,255);fill:none;stroke-linecap:butt;stroke-miterlimit:9;opacity:1;stroke-width:2;stroke-linejoin:miter;" transform="matrix(1.00 0.00 0.00 1.00 84.00 164.00 ) " id="229" />
    <path d="M 16.975 3.0248 C 16.73886 3.06546 16.51242 3.21251 16.34286 3.49717 15.6852 4.60047 14.77066 5.80307 14.35576 7.13567 13.92228 6.64929 13.54155 6.15081 13.6769 5.99947 14.54394 5.03396 13.22386 3.50617 12.3577 4.47067 11.36065 5.58137 11.58498 7.02467 12.50337 8.11237 13.35954 9.126869 14.12797 9.595369 14.22117 11.09017 13.71315 10.73458 13.23687 10.31038 12.67657 10.05927 12.01987 9.76308 10.16017 9.93013 9.818172 9.16561 9.266643 7.92891 7.657972 9.020451 8.210373 10.25711 8.769353 11.51011 9.959173 11.68241 11.05227 11.84021 12.21977 12.00775 13.06457 12.86311 14.09207 13.40411 14.02969 13.91396 13.95819 14.42471 13.91067 14.91691 13.77569 16.29881 15.64077 16.28731 15.77407 14.91691 15.90887 13.52981 16.18661 11.99041 16.06815 10.55711 18.20435 10.63938 21.03795 9.132412 21.83435 6.778212 22.27408 5.481912 20.47085 4.919911 20.03685 6.203712 19.77931 6.961502 18.99005 7.335611 18.40705 7.665512 17.62234 8.110412 16.88755 8.419831 16.02415 8.390021 16.08245 7.746341 16.39576 7.206521 16.71401 6.663321 17.12145 5.968041 17.53757 5.280221 17.95081 4.588721 18.46445 3.727551 17.68355 2.902821 16.97512 3.024821 z " style="stroke:none;fill-rule:evenodd;opacity:1;fill:rgb(255,255,255);" transform="matrix(1.00 0.00 0.00 1.00 84.00 164.00 ) " id="230" />
    <ellipse id="231" cy="19.52" cx="16.06" transform="matrix(1.00 0.00 0.00 1.00 84.00 164.00 ) " rx="0.60" ry="0.60" style="stroke:none;opacity:1;fill:rgb(255,255,255);" />
    <ellipse id="232" cy="19.52" cx="16.06" transform="matrix(1.00 0.00 0.00 1.00 84.00 164.00 ) " rx="0.60" ry="0.60" style="stroke:rgb(255,255,255);fill:none;stroke-linecap:butt;stroke-miterlimit:9;opacity:1;stroke-width:1.8061;stroke-linejoin:miter;" />
    <text id="233" transform="matrix(1.00 0.00 0.00 1.00 0.00 0.00 ) " x="84.00px" y="199.00px" style="stroke:none;clip-path:url(#235_text_clipper);font-family:Microsoft Sans Serif;font-size:8.25pt;opacity:1;">
      <tspan dy="8.25pt" id="237">LogEvent</tspan>
    </text>
    <path d="M 31.179 5.2 C 34.9985 11.0918 34.9814 18.682 31.13552 24.557 " style="stroke:rgb(169,169,169);fill:none;stroke-linecap:butt;stroke-miterlimit:9;opacity:1;stroke-width:2;stroke-linejoin:miter;" transform="matrix(1.00 0.00 0.00 1.00 84.00 244.00 ) " id="239" />
    <ellipse id="240" cy="15.00" cx="15.00" transform="matrix(1.00 0.00 0.00 1.00 84.00 244.00 ) " rx="15.00" ry="15.00" style="stroke:none;opacity:1;fill:rgb(91,178,126);" />
    <path d="M 15.011 14.916 15.15146 23.9388 M 23.14376 10.5618 15.01096 14.9158 6.97086 10.5618 M 6.924747 10.5618 15.15145 5.893101 23.14375 10.5618 23.14375 19.2433 15.15145 23.9386 6.924747 19.2433 z " style="stroke:rgb(255,255,255);fill:none;stroke-linecap:butt;stroke-miterlimit:9;opacity:1;stroke-width:2;stroke-linejoin:miter;" transform="matrix(1.00 0.00 0.00 1.00 84.00 244.00 ) " id="241" />
    <text id="242" transform="matrix(1.00 0.00 0.00 1.00 0.00 0.00 ) " x="84.00px" y="279.00px" style="stroke:none;clip-path:url(#244_text_clipper);font-family:Microsoft Sans Serif;font-size:8.25pt;opacity:1;">
      <tspan dy="8.25pt" id="246">RenderFrame</tspan>
    </text>
    <ellipse id="248" cy="15.00" cx="15.00" transform="matrix(1.00 0.00 0.00 1.00 4.00 164.00 ) " rx="15.00" ry="15.00" style="stroke:none;opacity:1;fill:rgb(238,192,75);" />
    <path d="M 1.5363 7.8 C 1.99103 6.9385 2.52798 6.1205 3.1403 5.3587 3.7527 4.5967 4.4403 3.8909 5.1968 3.254 5.95315 2.617 6.7782 2.049 7.665299 1.5627 M 0.4537992 19.4997 C 0.1435492 18.4956 -0.05714077 17.4835 -0.1564507 16.4769 -0.2551987 15.4701 -0.2516447 14.4684 -0.1525816 13.4844 -0.05334165 12.5007 0.1414284 11.5347 0.4251484 10.5993 M 7.892348 28.3993 C 7.030958 27.9447 6.212848 27.4077 5.450948 26.7954 4.689008 26.1831 3.983248 25.4954 3.346348 24.739 2.709558 23.9826 2.141548 23.1575 1.655148 22.2704 M 19.49415 29.4993 C 18.48995 29.8096 17.47785 30.0103 16.47125 30.1096 15.46445 30.2084 14.46285 30.2049 13.47895 30.1018 12.49507 30.0028 11.52915 29.8079 10.59365 29.5242 M 28.46365 22.0993 C 28.00892 22.9606 27.472 23.7788 26.85965 24.5407 26.24738 25.3026 25.55945 26.0084 24.80315 26.6453 24.0468 27.2822 23.22175 27.8502 22.33465 28.3365 M 29.54565 10.4995 C 29.85594 11.5037 30.05659 12.5157 30.15594 13.5224 30.25481 14.5292 30.25114 15.531 30.15199 16.5147 30.05279 17.4986 29.85802 18.4646 29.5743 19.4 M 22.10769 1.499998 C 22.96908 1.954698 23.7872 2.491698 24.5491 3.103898 25.31104 3.716298 26.0168 4.404098 26.65369 5.160398 27.29052 5.916898 27.85859 6.741898 28.34499 7.629098 M 10.50499 0.3999977 C 11.50919 0.08969772 12.52109 -0.1109023 13.52779 -0.2103023 14.53469 -0.3090023 15.53619 -0.3055023 16.52009 -0.2103023 17.50401 -0.1111023 18.46999 0.08369771 19.40549 0.3673977 " style="stroke:rgb(169,169,169);fill:none;stroke-linecap:butt;stroke-miterlimit:9;opacity:1;stroke-width:2;stroke-linejoin:miter;" transform="matrix(1.00 0.00 0.00 1.00 4.00 164.00 ) " id="249" />
    <path d="M 19.269 20.099 C 19.269 22.4871 17.3331 24.4238 14.9451 24.4238 12.5561 24.4238 10.6203 22.487 10.6203 20.099 10.6203 17.7109 12.5562 15.7751 14.9451 15.7751 17.3332 15.7751 19.269 17.711 19.269 20.099 z " style="stroke:rgb(255,255,255);fill:none;stroke-linecap:butt;stroke-miterlimit:9;opacity:1;stroke-width:2;stroke-linejoin:miter;" transform="matrix(1.00 0.00 0.00 1.00 4.00 164.00 ) " id="250" />
    <path d="M 16.975 3.0248 C 16.73886 3.06546 16.51242 3.21251 16.34286 3.49717 15.6852 4.60047 14.77066 5.80307 14.35576 7.13567 13.92228 6.64929 13.54155 6.15081 13.6769 5.99947 14.54394 5.03396 13.22386 3.50617 12.3577 4.47067 11.36065 5.58137 11.58498 7.02467 12.50337 8.11237 13.35954 9.126869 14.12797 9.595369 14.22117 11.09017 13.71315 10.73458 13.23687 10.31038 12.67657 10.05927 12.01987 9.76308 10.16017 9.93013 9.818172 9.16561 9.266643 7.92891 7.657972 9.020451 8.210373 10.25711 8.769353 11.51011 9.959173 11.68241 11.05227 11.84021 12.21977 12.00775 13.06457 12.86311 14.09207 13.40411 14.02969 13.91396 13.95819 14.42471 13.91067 14.91691 13.77569 16.29881 15.64077 16.28731 15.77407 14.91691 15.90887 13.52981 16.18661 11.99041 16.06815 10.55711 18.20435 10.63938 21.03795 9.132412 21.83435 6.778212 22.27408 5.481912 20.47085 4.919911 20.03685 6.203712 19.77931 6.961502 18.99005 7.335611 18.40705 7.665512 17.62234 8.110412 16.88755 8.419831 16.02415 8.390021 16.08245 7.746341 16.39576 7.206521 16.71401 6.663321 17.12145 5.968041 17.53757 5.280221 17.95081 4.588721 18.46445 3.727551 17.68355 2.902821 16.97512 3.024821 z " style="stroke:none;fill-rule:evenodd;opacity:1;fill:rgb(255,255,255);" transform="matrix(1.00 0.00 0.00 1.00 4.00 164.00 ) " id="251" />
    <ellipse id="252" cy="19.52" cx="16.06" transform="matrix(1.00 0.00 0.00 1.00 4.00 164.00 ) " rx="0.60" ry="0.60" style="stroke:none;opacity:1;fill:rgb(255,255,255);" />
    <ellipse id="253" cy="19.52" cx="16.06" transform="matrix(1.00 0.00 0.00 1.00 4.00 164.00 ) " rx="0.60" ry="0.60" style="stroke:rgb(255,255,255);fill:none;stroke-linecap:butt;stroke-miterlimit:9;opacity:1;stroke-width:1.8061;stroke-linejoin:miter;" />
    <text id="254" transform="matrix(1.00 0.00 0.00 1.00 0.00 0.00 ) " x="4.00px" y="199.00px" style="stroke:none;clip-path:url(#256_text_clipper);font-family:Microsoft Sans Serif;font-size:8.25pt;opacity:1;">
      <tspan dy="8.25pt" id="258">Range</tspan>
    </text>
    <text id="260" transform="matrix(1.00 0.00 0.00 1.00 0.00 0.00 ) " x="4.00px" y="211.45px" style="stroke:none;clip-path:url(#262_text_clipper);font-family:Microsoft Sans Serif;font-size:8.25pt;opacity:1;">
      <tspan dy="8.25pt" id="264">Animation</tspan>
    </text>
  </g>
  <defs id="clips_hatches_and_gradients">
    <clipPath id="55_text_clipper">
      <rect x="244.00" y="39.00" width="57.82" height="27.65" id="56" />
    </clipPath>
    <clipPath id="61_text_clipper">
      <rect x="244.00" y="51.45" width="57.82" height="27.65" id="62" />
    </clipPath>
    <clipPath id="79_text_clipper">
      <rect x="244.00" y="119.00" width="59.18" height="13.83" id="80" />
    </clipPath>
    <clipPath id="91_text_clipper">
      <rect x="244.00" y="279.00" width="51.54" height="13.83" id="92" />
    </clipPath>
    <clipPath id="103_text_clipper">
      <rect x="244.00" y="359.00" width="65.37" height="27.65" id="104" />
    </clipPath>
    <clipPath id="109_text_clipper">
      <rect x="244.00" y="371.45" width="65.37" height="27.65" id="110" />
    </clipPath>
    <clipPath id="121_text_clipper">
      <rect x="164.00" y="39.00" width="57.82" height="27.65" id="122" />
    </clipPath>
    <clipPath id="127_text_clipper">
      <rect x="164.00" y="51.45" width="57.82" height="27.65" id="128" />
    </clipPath>
    <clipPath id="139_text_clipper">
      <rect x="164.00" y="119.00" width="61.09" height="27.65" id="140" />
    </clipPath>
    <clipPath id="145_text_clipper">
      <rect x="164.00" y="131.45" width="61.09" height="27.65" id="146" />
    </clipPath>
    <clipPath id="161_text_clipper">
      <rect x="164.00" y="199.00" width="54.12" height="27.65" id="162" />
    </clipPath>
    <clipPath id="167_text_clipper">
      <rect x="164.00" y="211.45" width="54.12" height="27.65" id="168" />
    </clipPath>
    <clipPath id="179_text_clipper">
      <rect x="164.00" y="279.00" width="65.37" height="27.65" id="180" />
    </clipPath>
    <clipPath id="185_text_clipper">
      <rect x="164.00" y="291.45" width="65.37" height="27.65" id="186" />
    </clipPath>
    <clipPath id="199_text_clipper">
      <rect x="164.00" y="359.00" width="73.55" height="13.83" id="200" />
    </clipPath>
    <clipPath id="208_text_clipper">
      <rect x="84.00" y="39.00" width="44.03" height="27.65" id="209" />
    </clipPath>
    <clipPath id="214_text_clipper">
      <rect x="84.00" y="51.45" width="44.03" height="27.65" id="215" />
    </clipPath>
    <clipPath id="223_text_clipper">
      <rect x="84.00" y="119.00" width="73.55" height="13.83" id="224" />
    </clipPath>
    <clipPath id="235_text_clipper">
      <rect x="84.00" y="199.00" width="51.54" height="13.83" id="236" />
    </clipPath>
    <clipPath id="244_text_clipper">
      <rect x="84.00" y="279.00" width="73.55" height="13.83" id="245" />
    </clipPath>
    <clipPath id="256_text_clipper">
      <rect x="4.00" y="199.00" width="54.18" height="27.65" id="257" />
    </clipPath>
    <clipPath id="262_text_clipper">
      <rect x="4.00" y="211.45" width="54.18" height="27.65" id="263" />
    </clipPath>
  </defs>
</svg>