<svg version="1.1" id="Layer_1" xmlns="http://www.w3.org/2000/svg" xmlns:xlink="http://www.w3.org/1999/xlink" x="0px" y="0px"
	 width="38pt" height="55pt" viewBox="0 0 172 229" preserveAspectRatio="xMidYMid meet" enable-background="new 0 0 366 487" xml:space="preserve">
<path fill="#FEFEFE" opacity="1.000000" stroke="none" 
	d="
M229.000000,1.000000 
	C274.988251,1.000000 320.976532,1.000000 366.982391,1.000000 
	C366.982391,163.280182 366.982391,325.560364 366.982391,487.920288 
	C245.084320,487.920288 123.168564,487.920288 1.126406,487.920288 
	C1.126406,325.666718 1.126406,163.333374 1.124614,1.000016 
	C75.437225,1.000000 149.751633,1.000000 224.467316,1.338866 
	C223.636948,3.221698 222.162918,4.630660 221.214844,6.332598 
	C216.690826,14.453757 212.331085,22.666193 207.873154,30.824446 
	C198.393173,48.173389 189.049332,65.583191 183.415268,84.676018 
	C182.512329,87.735901 181.715118,90.826988 180.745132,94.354210 
	C178.240952,91.671326 176.032028,89.629204 174.203918,87.289551 
	C166.657639,77.631691 158.499268,68.343666 151.976196,58.027916 
	C146.434677,49.264397 147.785904,39.881279 154.741638,31.677032 
	C158.624359,27.097393 158.368027,22.235840 154.345490,18.995905 
	C150.486893,15.888009 146.811325,16.592886 142.740540,21.221422 
	C131.836578,33.619358 130.376572,49.012806 138.885086,65.309143 
	C141.770111,70.834785 145.300537,76.023453 148.664932,81.578964 
	C142.335739,81.894424 136.205856,81.839409 130.169846,82.565094 
	C107.680283,85.268906 88.788223,78.083374 73.389854,61.846977 
	C65.613907,53.647839 58.704700,44.631298 51.063770,36.295856 
	C49.427872,34.511269 45.965755,32.793194 43.986801,33.345276 
	C41.614647,34.007050 38.895969,36.854126 38.239075,39.273842 
	C37.580864,41.698406 38.495064,45.360893 40.083160,47.439236 
	C45.938717,55.102386 52.105553,62.565815 58.615120,69.683861 
	C77.328682,90.146667 99.727325,101.329979 128.346573,97.348862 
	C135.702469,96.325600 143.341675,96.658836 150.788239,97.211250 
	C155.596176,97.567917 161.645920,98.011276 164.772125,100.941307 
	C172.958511,108.613922 177.690842,118.828163 180.935089,129.815842 
	C179.990341,129.890976 179.338913,130.033478 178.704025,129.979858 
	C166.454483,128.945831 154.199570,127.965782 141.962265,126.801132 
	C136.583191,126.289185 132.727753,128.613297 131.925400,133.312469 
	C131.054611,138.412445 132.870819,141.461838 138.741730,142.142929 
	C152.423264,143.730133 166.174103,144.723373 179.900360,145.917038 
	C181.474609,146.053940 183.071030,145.935593 185.112778,145.935593 
	C185.479294,154.372528 186.056137,162.166260 186.089172,169.962280 
	C186.121811,177.666077 185.604965,185.372192 185.329163,193.077301 
	C184.876038,193.264420 184.422928,193.451538 183.969818,193.638657 
	C177.814301,188.393387 171.612946,183.200790 165.513657,177.890945 
	C155.510300,169.182312 145.152588,161.191574 131.434235,159.272324 
	C126.658974,158.604248 121.896729,157.816193 117.155197,156.938873 
	C102.617897,154.249069 88.010490,151.834442 81.907173,135.172226 
	C80.581024,131.551819 75.080536,130.624573 71.370941,132.615707 
	C67.648529,134.613739 65.932518,137.840698 67.931389,141.777237 
	C70.385818,146.610870 72.809616,151.682144 76.324638,155.709946 
	C84.159164,164.687378 95.152107,168.117462 106.413574,169.884079 
	C125.547745,172.885696 142.982010,179.025970 157.662430,192.322403 
	C165.020325,198.986633 173.459229,204.453598 181.348404,210.540894 
	C182.122696,211.138351 183.021759,212.351715 182.930420,213.175827 
	C181.726181,224.039307 180.354492,234.884186 179.042465,245.588852 
	C177.968231,245.791107 177.485718,245.874115 177.006531,245.973312 
	C157.191086,250.075912 142.752747,260.899353 137.125717,280.719055 
	C131.493500,300.556946 135.142990,318.916138 150.841949,333.298859 
	C165.171814,346.427246 182.644455,349.084290 201.234344,345.968323 
	C224.514267,342.066315 242.248688,322.542755 243.003189,300.299957 
	C243.924637,273.135925 229.813843,253.197296 205.204681,246.960739 
	C201.878433,246.117798 198.497772,245.489471 195.427902,244.823700 
	C197.781174,219.608490 200.095169,194.813919 202.415741,169.948990 
	C209.683167,169.458344 217.365616,169.499786 224.861938,168.339157 
	C262.663879,162.486481 296.502136,146.495346 328.509094,126.388878 
	C342.438904,117.638290 352.961243,105.425919 359.183777,89.902161 
	C361.430847,84.296234 360.396942,80.753975 356.061432,79.042717 
	C351.383331,77.196220 346.515167,79.048042 344.572357,83.939636 
	C339.245667,97.351288 329.884521,107.426636 317.838257,114.672684 
	C290.114563,131.348999 261.032288,145.115768 229.053482,151.507721 
	C220.055878,153.306168 210.725418,153.439392 201.542130,154.336960 
	C200.583389,146.622772 199.788101,140.223801 199.016281,134.013565 
	C199.287033,133.672226 199.364609,133.471115 199.498138,133.421982 
	C200.893066,132.908600 202.290955,132.401855 203.699249,131.926468 
	C236.458633,120.868286 264.121796,102.272690 286.515625,75.899490 
	C290.896973,70.739555 290.915527,65.952583 286.684784,62.302780 
	C282.611084,58.788464 279.421936,59.556877 274.616943,65.216454 
	C261.895752,80.200089 247.269379,93.044365 230.045975,102.500900 
	C218.967026,108.583824 207.191986,113.398918 194.903473,119.169930 
	C194.903473,115.108475 194.788239,112.780373 194.922211,110.466698 
	C195.780945,95.635963 200.021652,81.618736 206.551300,68.462563 
	C215.184555,51.067982 224.646484,34.085304 233.713348,16.905060 
	C238.332947,8.151632 237.369995,5.016082 229.000000,1.000000 
M15.157932,228.499924 
	C15.157932,267.240692 15.157932,305.981476 15.157932,344.667816 
	C24.804293,344.667816 33.862640,344.667816 43.271214,344.667816 
	C43.271214,340.609924 43.271214,336.884827 43.271214,332.773193 
	C65.184441,358.523956 108.724274,347.726868 118.345856,315.235962 
	C123.293488,298.528381 122.126099,282.224548 113.419708,267.023987 
	C105.117912,252.529739 92.680374,244.524323 75.417862,244.956085 
	C64.303490,245.234055 54.148144,247.714859 45.594643,257.228455 
	C45.594643,235.131851 45.594643,214.266586 45.594643,193.302216 
	C35.201611,193.302216 25.321798,193.302216 15.157933,193.302216 
	C15.157933,204.904602 15.157933,216.202255 15.157932,228.499924 
M305.077515,247.352371 
	C299.922882,250.986389 294.768250,254.620407 289.566864,258.287415 
	C289.566864,255.444016 289.566864,251.890549 289.566864,248.257263 
	C279.644653,248.257263 270.245422,248.257263 260.751678,248.257263 
	C260.751678,280.602264 260.751678,312.684570 260.751678,344.619659 
	C270.918823,344.619659 280.813965,344.619659 290.842407,344.619659 
	C290.842407,328.085175 290.697449,311.933258 290.934509,295.786987 
	C291.001862,291.198151 291.577789,286.429779 292.985779,282.089325 
	C295.377716,274.715668 301.790894,271.455139 310.557098,272.178619 
	C317.040833,272.713745 321.616516,277.005768 322.973602,284.443726 
	C323.685120,288.343506 323.925964,292.372803 323.951782,296.346405 
	C324.056458,312.452545 323.995239,328.559784 323.995239,344.664612 
	C334.331970,344.664612 344.211884,344.664612 354.171082,344.664612 
	C354.171082,324.667175 354.336884,305.007568 354.068390,285.353882 
	C353.989532,279.581604 353.182983,273.704376 351.825714,268.088959 
	C349.176910,257.129791 342.580292,249.330566 331.357635,246.421539 
	C322.856445,244.217941 314.253906,244.020264 305.077515,247.352371 
M326.995941,422.498535 
	C330.369873,428.033112 333.666656,433.617371 337.176758,439.064209 
	C337.966125,440.289062 339.463562,441.810120 340.697815,441.868530 
	C346.790771,442.157013 352.904846,441.999786 358.895569,441.999786 
	C358.895569,418.036163 358.895569,394.647430 358.895569,371.271790 
	C353.679413,371.271790 348.759399,371.271790 343.555115,371.271790 
	C343.555115,387.272797 343.555115,403.001587 343.555115,419.855316 
	C342.026123,417.694977 341.042358,416.463562 340.227417,415.129089 
	C331.912140,401.513000 323.650330,387.864136 315.286377,374.278137 
	C314.500641,373.001831 313.160248,371.209961 312.008911,371.157379 
	C305.433380,370.857269 298.837097,371.011658 292.400208,371.011658 
	C292.400208,395.048279 292.400208,418.436371 292.400208,441.776062 
	C297.665863,441.776062 302.603119,441.776062 307.977234,441.776062 
	C307.977234,425.365509 307.977234,409.174530 307.977234,391.492340 
	C314.725281,402.470917 320.684296,412.165833 326.995941,422.498535 
M221.157486,438.440399 
	C223.254715,439.432037 225.293808,440.578735 227.458466,441.390472 
	C242.822296,447.152008 261.284210,443.402405 271.320251,432.553101 
	C281.229797,421.840546 283.757233,403.514343 277.251160,389.549255 
	C270.667694,375.418030 256.136902,367.611542 239.005325,369.002228 
	C222.259689,370.361572 209.977463,380.094269 205.803497,395.312042 
	C201.188812,412.136627 206.728653,428.209747 221.157486,438.440399 
M122.545364,440.054688 
	C131.770325,444.578308 141.305252,445.338898 151.071869,442.177124 
	C161.473404,438.809723 167.063461,430.945862 167.003845,420.060120 
	C166.951447,410.493347 161.863846,404.420563 151.175659,400.919037 
	C146.784851,399.480591 142.277039,398.162262 138.230255,396.019226 
	C136.431824,395.066833 134.604233,392.164093 134.685471,390.226044 
	C134.768341,388.248566 136.776291,385.698975 138.647278,384.579559 
	C143.102142,381.914185 147.917267,382.582764 152.479813,384.831299 
	C153.900269,385.531311 155.220367,386.434967 156.620544,387.265656 
	C160.097687,383.518372 163.357880,380.004883 166.705002,376.397705 
	C161.936996,371.322052 155.760010,369.857483 149.496033,369.223907 
	C139.900253,368.253296 130.826248,369.932373 123.913025,377.395630 
	C113.635216,388.491150 117.149391,404.336060 131.077377,410.085327 
	C136.440857,412.299286 142.135666,413.821808 147.238556,416.499634 
	C149.206955,417.532562 151.038574,420.952087 150.928314,423.185333 
	C150.830200,425.172546 148.293335,428.024292 146.241425,428.700836 
	C143.110641,429.733093 139.295502,429.941132 136.094193,429.165283 
	C132.721649,428.347992 129.728806,425.963837 126.231407,424.082062 
	C122.996506,427.619293 119.464386,431.481537 115.759880,435.532288 
	C118.052635,437.112366 119.963402,438.429230 122.545364,440.054688 
M20.590733,386.984711 
	C26.548223,401.936188 32.500870,416.889587 38.464836,431.838501 
	C42.729057,442.526978 42.735832,442.524261 55.092789,441.787048 
	C64.699738,418.415985 74.367317,394.897400 84.121399,371.168427 
	C78.157295,371.168427 72.853302,371.168427 67.460403,371.168427 
	C61.579338,386.479553 55.743908,401.671875 49.597763,417.673157 
	C43.480713,401.485443 37.736652,386.284790 32.036808,371.201172 
	C26.131634,371.201172 20.542084,371.201172 14.384615,371.201172 
	C16.433165,376.473602 18.339987,381.381287 20.590733,386.984711 
M91.989258,411.500000 
	C91.989258,421.583618 91.989258,431.667267 91.989258,441.776428 
	C97.431137,441.776428 102.342445,441.776428 107.461014,441.776428 
	C107.461014,418.175537 107.461014,394.808960 107.461014,371.307617 
	C102.204369,371.307617 97.175041,371.307617 91.989258,371.307617 
	C91.989258,384.583588 91.989258,397.541809 91.989258,411.500000 
M194.685150,376.675507 
	C194.685150,374.894531 194.685150,373.113525 194.685150,371.354919 
	C189.115005,371.354919 184.077011,371.354919 179.304504,371.354919 
	C179.304504,395.097992 179.304504,418.474915 179.304504,441.716187 
	C184.532776,441.716187 189.442337,441.716187 194.685135,441.716187 
	C194.685135,420.161102 194.685135,398.898651 194.685150,376.675507 
z"/>
<path fill="#040404" opacity="1.000000" stroke="none" 
	d="
M228.600006,1.000000 
	C237.369995,5.016082 238.332947,8.151632 233.713348,16.905060 
	C224.646484,34.085304 215.184555,51.067982 206.551300,68.462563 
	C200.021652,81.618736 195.780945,95.635963 194.922211,110.466698 
	C194.788239,112.780373 194.903473,115.108475 194.903473,119.169930 
	C207.191986,113.398918 218.967026,108.583824 230.045975,102.500900 
	C247.269379,93.044365 261.895752,80.200089 274.616943,65.216454 
	C279.421936,59.556877 282.611084,58.788464 286.684784,62.302780 
	C290.915527,65.952583 290.896973,70.739555 286.515625,75.899490 
	C264.121796,102.272690 236.458633,120.868286 203.699249,131.926468 
	C202.290955,132.401855 200.893066,132.908600 199.498138,133.421982 
	C199.364609,133.471115 199.287033,133.672226 199.016281,134.013565 
	C199.788101,140.223801 200.583389,146.622772 201.542130,154.336960 
	C210.725418,153.439392 220.055878,153.306168 229.053482,151.507721 
	C261.032288,145.115768 290.114563,131.348999 317.838257,114.672684 
	C329.884521,107.426636 339.245667,97.351288 344.572357,83.939636 
	C346.515167,79.048042 351.383331,77.196220 356.061432,79.042717 
	C360.396942,80.753975 361.430847,84.296234 359.183777,89.902161 
	C352.961243,105.425919 342.438904,117.638290 328.509094,126.388878 
	C296.502136,146.495346 262.663879,162.486481 224.861938,168.339157 
	C217.365616,169.499786 209.683167,169.458344 202.415741,169.948990 
	C200.095169,194.813919 197.781174,219.608490 195.427902,244.823700 
	C198.497772,245.489471 201.878433,246.117798 205.204681,246.960739 
	C229.813843,253.197296 243.924637,273.135925 243.003189,300.299957 
	C242.248688,322.542755 224.514267,342.066315 201.234344,345.968323 
	C182.644455,349.084290 165.171814,346.427246 150.841949,333.298859 
	C135.142990,318.916138 131.493500,300.556946 137.125717,280.719055 
	C142.752747,260.899353 157.191086,250.075912 177.006531,245.973312 
	C177.485718,245.874115 177.968231,245.791107 179.042465,245.588852 
	C180.354492,234.884186 181.726181,224.039307 182.930420,213.175827 
	C183.021759,212.351715 182.122696,211.138351 181.348404,210.540894 
	C173.459229,204.453598 165.020325,198.986633 157.662430,192.322403 
	C142.982010,179.025970 125.547745,172.885696 106.413574,169.884079 
	C95.152107,168.117462 84.159164,164.687378 76.324638,155.709946 
	C72.809616,151.682144 70.385818,146.610870 67.931389,141.777237 
	C65.932518,137.840698 67.648529,134.613739 71.370941,132.615707 
	C75.080536,130.624573 80.581024,131.551819 81.907173,135.172226 
	C88.010490,151.834442 102.617897,154.249069 117.155197,156.938873 
	C121.896729,157.816193 126.658974,158.604248 131.434235,159.272324 
	C145.152588,161.191574 155.510300,169.182312 165.513657,177.890945 
	C171.612946,183.200790 177.814301,188.393387 183.969818,193.638657 
	C184.422928,193.451538 184.876038,193.264420 185.329163,193.077301 
	C185.604965,185.372192 186.121811,177.666077 186.089172,169.962280 
	C186.056137,162.166260 185.479294,154.372528 185.112778,145.935593 
	C183.071030,145.935593 181.474609,146.053940 179.900360,145.917038 
	C166.174103,144.723373 152.423264,143.730133 138.741730,142.142929 
	C132.870819,141.461838 131.054611,138.412445 131.925400,133.312469 
	C132.727753,128.613297 136.583191,126.289185 141.962265,126.801132 
	C154.199570,127.965782 166.454483,128.945831 178.704025,129.979858 
	C179.338913,130.033478 179.990341,129.890976 180.935089,129.815842 
	C177.690842,118.828163 172.958511,108.613922 164.772125,100.941307 
	C161.645920,98.011276 155.596176,97.567917 150.788239,97.211250 
	C143.341675,96.658836 135.702469,96.325600 128.346573,97.348862 
	C99.727325,101.329979 77.328682,90.146667 58.615120,69.683861 
	C52.105553,62.565815 45.938717,55.102386 40.083160,47.439236 
	C38.495064,45.360893 37.580864,41.698406 38.239075,39.273842 
	C38.895969,36.854126 41.614647,34.007050 43.986801,33.345276 
	C45.965755,32.793194 49.427872,34.511269 51.063770,36.295856 
	C58.704700,44.631298 65.613907,53.647839 73.389854,61.846977 
	C88.788223,78.083374 107.680283,85.268906 130.169846,82.565094 
	C136.205856,81.839409 142.335739,81.894424 148.664932,81.578964 
	C145.300537,76.023453 141.770111,70.834785 138.885086,65.309143 
	C130.376572,49.012806 131.836578,33.619358 142.740540,21.221422 
	C146.811325,16.592886 150.486893,15.888009 154.345490,18.995905 
	C158.368027,22.235840 158.624359,27.097393 154.741638,31.677032 
	C147.785904,39.881279 146.434677,49.264397 151.976196,58.027916 
	C158.499268,68.343666 166.657639,77.631691 174.203918,87.289551 
	C176.032028,89.629204 178.240952,91.671326 180.745132,94.354210 
	C181.715118,90.826988 182.512329,87.735901 183.415268,84.676018 
	C189.049332,65.583191 198.393173,48.173389 207.873154,30.824446 
	C212.331085,22.666193 216.690826,14.453757 221.214844,6.332598 
	C222.162918,4.630660 223.636948,3.221698 224.934296,1.338866 
	C226.066666,1.000000 227.133347,1.000000 228.600006,1.000000 
M205.523773,315.059296 
	C209.203598,311.155731 211.965302,306.856812 211.980148,300.882935 
	C206.749405,303.639740 201.974564,304.528778 197.673813,300.445557 
	C193.973602,296.932495 193.591309,292.387817 195.470322,287.985168 
	C198.034653,281.976654 203.213211,281.230896 209.110794,282.853485 
	C205.253098,269.720642 180.641891,266.708557 170.864990,278.629852 
	C162.993683,288.227631 163.240585,305.319153 171.582092,314.172699 
	C179.522705,322.600769 194.573792,323.213959 205.523773,315.059296 
z"/>
<path fill="#030303" opacity="1.000000" stroke="none" 
	d="
M15.157932,227.999908 
	C15.157933,216.202255 15.157933,204.904602 15.157933,193.302216 
	C25.321798,193.302216 35.201611,193.302216 45.594643,193.302216 
	C45.594643,214.266586 45.594643,235.131851 45.594643,257.228455 
	C54.148144,247.714859 64.303490,245.234055 75.417862,244.956085 
	C92.680374,244.524323 105.117912,252.529739 113.419708,267.023987 
	C122.126099,282.224548 123.293488,298.528381 118.345856,315.235962 
	C108.724274,347.726868 65.184441,358.523956 43.271214,332.773193 
	C43.271214,336.884827 43.271214,340.609924 43.271214,344.667816 
	C33.862640,344.667816 24.804293,344.667816 15.157932,344.667816 
	C15.157932,305.981476 15.157932,267.240692 15.157932,227.999908 
M44.273907,287.118866 
	C43.955933,288.581238 43.567337,290.032318 43.330891,291.507751 
	C40.943237,306.406738 49.119717,318.565155 62.907597,320.655090 
	C77.524345,322.870667 88.477692,314.770477 90.641769,300.145203 
	C92.601974,286.897675 85.753700,274.894928 74.621223,272.066528 
	C60.609848,268.506714 49.338810,273.897156 44.273907,287.118866 
z"/>
<path fill="#030303" opacity="1.000000" stroke="none" 
	d="
M305.445801,247.218536 
	C314.253906,244.020264 322.856445,244.217941 331.357635,246.421539 
	C342.580292,249.330566 349.176910,257.129791 351.825714,268.088959 
	C353.182983,273.704376 353.989532,279.581604 354.068390,285.353882 
	C354.336884,305.007568 354.171082,324.667175 354.171082,344.664612 
	C344.211884,344.664612 334.331970,344.664612 323.995239,344.664612 
	C323.995239,328.559784 324.056458,312.452545 323.951782,296.346405 
	C323.925964,292.372803 323.685120,288.343506 322.973602,284.443726 
	C321.616516,277.005768 317.040833,272.713745 310.557098,272.178619 
	C301.790894,271.455139 295.377716,274.715668 292.985779,282.089325 
	C291.577789,286.429779 291.001862,291.198151 290.934509,295.786987 
	C290.697449,311.933258 290.842407,328.085175 290.842407,344.619659 
	C280.813965,344.619659 270.918823,344.619659 260.751678,344.619659 
	C260.751678,312.684570 260.751678,280.602264 260.751678,248.257263 
	C270.245422,248.257263 279.644653,248.257263 289.566864,248.257263 
	C289.566864,251.890549 289.566864,255.444016 289.566864,258.287415 
	C294.768250,254.620407 299.922882,250.986389 305.445801,247.218536 
z"/>
<path fill="#020202" opacity="1.000000" stroke="none" 
	d="
M326.819641,422.179626 
	C320.684296,412.165833 314.725281,402.470917 307.977234,391.492340 
	C307.977234,409.174530 307.977234,425.365509 307.977234,441.776062 
	C302.603119,441.776062 297.665863,441.776062 292.400208,441.776062 
	C292.400208,418.436371 292.400208,395.048279 292.400208,371.011658 
	C298.837097,371.011658 305.433380,370.857269 312.008911,371.157379 
	C313.160248,371.209961 314.500641,373.001831 315.286377,374.278137 
	C323.650330,387.864136 331.912140,401.513000 340.227417,415.129089 
	C341.042358,416.463562 342.026123,417.694977 343.555115,419.855316 
	C343.555115,403.001587 343.555115,387.272797 343.555115,371.271790 
	C348.759399,371.271790 353.679413,371.271790 358.895569,371.271790 
	C358.895569,394.647430 358.895569,418.036163 358.895569,441.999786 
	C352.904846,441.999786 346.790771,442.157013 340.697815,441.868530 
	C339.463562,441.810120 337.966125,440.289062 337.176758,439.064209 
	C333.666656,433.617371 330.369873,428.033112 326.819641,422.179626 
z"/>
<path fill="#040404" opacity="1.000000" stroke="none" 
	d="
M220.846649,438.248108 
	C206.728653,428.209747 201.188812,412.136627 205.803497,395.312042 
	C209.977463,380.094269 222.259689,370.361572 239.005325,369.002228 
	C256.136902,367.611542 270.667694,375.418030 277.251160,389.549255 
	C283.757233,403.514343 281.229797,421.840546 271.320251,432.553101 
	C261.284210,443.402405 242.822296,447.152008 227.458466,441.390472 
	C225.293808,440.578735 223.254715,439.432037 220.846649,438.248108 
M263.755585,413.911530 
	C264.021393,412.104126 264.364197,410.304199 264.540344,408.488098 
	C265.627228,397.285278 259.513550,387.190613 249.788055,384.063171 
	C237.876007,380.232605 225.812271,386.082733 222.009415,397.534027 
	C217.586716,410.851776 223.254684,424.648895 234.829651,428.741333 
	C247.065186,433.067322 258.768433,427.309326 263.755585,413.911530 
z"/>
<path fill="#030303" opacity="1.000000" stroke="none" 
	d="
M122.209763,439.900391 
	C119.963402,438.429230 118.052635,437.112366 115.759880,435.532288 
	C119.464386,431.481537 122.996506,427.619293 126.231407,424.082062 
	C129.728806,425.963837 132.721649,428.347992 136.094193,429.165283 
	C139.295502,429.941132 143.110641,429.733093 146.241425,428.700836 
	C148.293335,428.024292 150.830200,425.172546 150.928314,423.185333 
	C151.038574,420.952087 149.206955,417.532562 147.238556,416.499634 
	C142.135666,413.821808 136.440857,412.299286 131.077377,410.085327 
	C117.149391,404.336060 113.635216,388.491150 123.913025,377.395630 
	C130.826248,369.932373 139.900253,368.253296 149.496033,369.223907 
	C155.760010,369.857483 161.936996,371.322052 166.705002,376.397705 
	C163.357880,380.004883 160.097687,383.518372 156.620544,387.265656 
	C155.220367,386.434967 153.900269,385.531311 152.479813,384.831299 
	C147.917267,382.582764 143.102142,381.914185 138.647278,384.579559 
	C136.776291,385.698975 134.768341,388.248566 134.685471,390.226044 
	C134.604233,392.164093 136.431824,395.066833 138.230255,396.019226 
	C142.277039,398.162262 146.784851,399.480591 151.175659,400.919037 
	C161.863846,404.420563 166.951447,410.493347 167.003845,420.060120 
	C167.063461,430.945862 161.473404,438.809723 151.071869,442.177124 
	C141.305252,445.338898 131.770325,444.578308 122.209763,439.900391 
z"/>
<path fill="#030303" opacity="1.000000" stroke="none" 
	d="
M20.418772,386.636841 
	C18.339987,381.381287 16.433165,376.473602 14.384615,371.201172 
	C20.542084,371.201172 26.131634,371.201172 32.036808,371.201172 
	C37.736652,386.284790 43.480713,401.485443 49.597763,417.673157 
	C55.743908,401.671875 61.579338,386.479553 67.460403,371.168427 
	C72.853302,371.168427 78.157295,371.168427 84.121399,371.168427 
	C74.367317,394.897400 64.699738,418.415985 55.092789,441.787048 
	C42.735832,442.524261 42.729057,442.526978 38.464836,431.838501 
	C32.500870,416.889587 26.548223,401.936188 20.418772,386.636841 
z"/>
<path fill="#060606" opacity="1.000000" stroke="none" 
	d="
M91.989258,411.000000 
	C91.989258,397.541809 91.989258,384.583588 91.989258,371.307617 
	C97.175041,371.307617 102.204369,371.307617 107.461014,371.307617 
	C107.461014,394.808960 107.461014,418.175537 107.461014,441.776428 
	C102.342445,441.776428 97.431137,441.776428 91.989258,441.776428 
	C91.989258,431.667267 91.989258,421.583618 91.989258,411.000000 
z"/>
<path fill="#060606" opacity="1.000000" stroke="none" 
	d="
M194.685150,377.155884 
	C194.685135,398.898651 194.685135,420.161102 194.685135,441.716187 
	C189.442337,441.716187 184.532776,441.716187 179.304504,441.716187 
	C179.304504,418.474915 179.304504,395.097992 179.304504,371.354919 
	C184.077011,371.354919 189.115005,371.354919 194.685150,371.354919 
	C194.685150,373.113525 194.685150,374.894531 194.685150,377.155884 
z"/>
<path fill="#FCFCFC" opacity="1.000000" stroke="none" 
	d="
M205.243378,315.295959 
	C194.573792,323.213959 179.522705,322.600769 171.582092,314.172699 
	C163.240585,305.319153 162.993683,288.227631 170.864990,278.629852 
	C180.641891,266.708557 205.253098,269.720642 209.110794,282.853485 
	C203.213211,281.230896 198.034653,281.976654 195.470322,287.985168 
	C193.591309,292.387817 193.973602,296.932495 197.673813,300.445557 
	C201.974564,304.528778 206.749405,303.639740 211.980148,300.882935 
	C211.965302,306.856812 209.203598,311.155731 205.243378,315.295959 
z"/>
<path fill="#FDFDFD" opacity="1.000000" stroke="none" 
	d="
M44.459435,286.760864 
	C49.338810,273.897156 60.609848,268.506714 74.621223,272.066528 
	C85.753700,274.894928 92.601974,286.897675 90.641769,300.145203 
	C88.477692,314.770477 77.524345,322.870667 62.907597,320.655090 
	C49.119717,318.565155 40.943237,306.406738 43.330891,291.507751 
	C43.567337,290.032318 43.955933,288.581238 44.459435,286.760864 
z"/>
<path fill="#FCFCFC" opacity="1.000000" stroke="none" 
	d="
M263.606140,414.284241 
	C258.768433,427.309326 247.065186,433.067322 234.829651,428.741333 
	C223.254684,424.648895 217.586716,410.851776 222.009415,397.534027 
	C225.812271,386.082733 237.876007,380.232605 249.788055,384.063171 
	C259.513550,387.190613 265.627228,397.285278 264.540344,408.488098 
	C264.364197,410.304199 264.021393,412.104126 263.606140,414.284241 
z"/>
</svg>